<?xml version="1.0" encoding="UTF-8"?>
<svg width="208px" height="14px" viewBox="0 0 208 14" version="1.1" xmlns="http://www.w3.org/2000/svg" xmlns:xlink="http://www.w3.org/1999/xlink">
    <!-- Generator: Sketch 54.1 (76490) - https://sketchapp.com -->
    <title>Logo_Absolute-Teamsport</title>
    <desc>Created with Sketch.</desc>
    <defs>
        <polygon id="path-1" points="0 0.09408 207.76 0.09408 207.76 13.9664 0 13.9664"></polygon>
    </defs>
    <g id="Atome-&amp;-Moleküle" stroke="none" stroke-width="1" fill="none" fill-rule="evenodd">
        <g id="Konzeptdarstellung" transform="translate(-68.000000, -293.000000)">
            <g id="Konzeptdarstellung-/-Absolute-/-Run-/-Bandarole" transform="translate(30.000000, 289.000000)">
                <g id="Logo_Absolute-Teamsport" transform="translate(38.000000, 4.000000)">
                    <path d="M9.534,7.74872 C8.95664,7.74872 8.48736,8.218 8.48736,8.7948 C8.48736,9.37216 8.95664,9.84088 9.534,9.84088 C10.11136,9.84088 10.5812,9.37216 10.5812,8.7948 C10.5812,8.218 10.11136,7.74872 9.534,7.74872 M9.54128,9.4304 C9.19408,9.4304 8.9124,9.14872 8.9124,8.80152 C8.9124,8.45432 9.19408,8.17152 9.54128,8.17152 C9.88792,8.17152 10.17072,8.45432 10.17072,8.80152 C10.17072,9.14872 9.88792,9.4304 9.54128,9.4304 M7.3304,9.10392 C7.42896,9.08208 7.60816,9.0412 7.69776,9.01152 C7.9884,8.91128 8.32216,8.75 8.32216,8.38432 C8.32216,8.13568 8.24488,7.98 8.07184,7.87976 C7.96656,7.8176 7.8344,7.78456 7.6916,7.78456 L6.53352,7.78456 L6.53352,8.15808 L7.5068,8.15808 C7.72352,8.15808 7.82376,8.22864 7.82376,8.37928 C7.82376,8.51592 7.61824,8.59432 7.41776,8.65312 L7.08512,8.75168 L7.08624,8.75168 C6.48536,8.9124 6.48592,9.30608 6.48648,9.62248 L6.48648,9.81624 L8.31488,9.81624 L8.31488,9.44608 L6.95968,9.44608 C6.96024,9.32624 7.0252,9.16888 7.3304,9.10392 M11.78296,7.74872 C11.20504,7.74872 10.7352,8.218 10.7352,8.7948 C10.7352,9.37216 11.20504,9.84088 11.78296,9.84088 C12.35976,9.84088 12.8296,9.37216 12.8296,8.7948 C12.8296,8.218 12.35976,7.74872 11.78296,7.74872 M11.79024,9.4304 C11.44248,9.4304 11.16024,9.14872 11.16024,8.80152 C11.16024,8.45432 11.44248,8.17152 11.79024,8.17152 C12.13632,8.17152 12.418,8.45432 12.418,8.80152 C12.418,9.14872 12.13632,9.4304 11.79024,9.4304 M14.03248,7.74872 C13.45512,7.74872 12.98472,8.218 12.98472,8.7948 C12.98472,9.37216 13.45512,9.84088 14.03248,9.84088 C14.60872,9.84088 15.078,9.37216 15.078,8.7948 C15.078,8.218 14.60872,7.74872 14.03248,7.74872 M14.03696,9.4304 C13.69088,9.4304 13.4092,9.14872 13.4092,8.80152 C13.4092,8.45432 13.69088,8.17152 14.03696,8.17152 C14.38472,8.17152 14.66752,8.45432 14.66752,8.80152 C14.66752,9.14872 14.38472,9.4304 14.03696,9.4304" id="Fill-1" fill="#FFFFFF"></path>
                    <path d="M10.91496,4.522 C10.33648,4.522 9.8672,4.99184 9.8672,5.56808 C9.8672,6.14544 10.33648,6.61472 10.91496,6.61472 C11.4912,6.61472 11.96104,6.14544 11.96104,5.56808 C11.96104,4.99184 11.4912,4.522 10.91496,4.522 M10.92056,6.20424 C10.57392,6.20424 10.29112,5.922 10.29112,5.57536 C10.29112,5.2276 10.57392,4.94592 10.92056,4.94592 C11.26776,4.94592 11.54944,5.2276 11.54944,5.57536 C11.54944,5.922 11.26776,6.20424 10.92056,6.20424" id="Fill-2" fill="#FFFFFF"></path>
                    <path d="M6.76816,5.39112 L6.20984,5.39112 C6.04016,5.39112 5.95784,5.32448 5.95784,5.18616 C5.95784,5.01144 6.0508,4.93752 6.26864,4.93752 L7.32256,4.93752 L7.32256,4.5528 L6.20648,4.5528 C5.71088,4.5528 5.49024,4.74656 5.49024,5.18112 C5.49024,5.58768 5.70024,5.76856 6.17064,5.76856 L6.66792,5.76856 C6.87568,5.76856 6.95352,5.82792 6.95352,5.98752 C6.95352,6.1432 6.8684,6.20032 6.63992,6.20032 L5.57144,6.20032 L5.57144,6.58336 L6.70656,6.58336 C7.19992,6.58336 7.42,6.39464 7.42,5.97016 C7.42,5.55296 7.23744,5.39112 6.76816,5.39112" id="Fill-3" fill="#FFFFFF"></path>
                    <path d="M9.36208,4.65472 C9.24728,4.58248 9.07424,4.5528 8.76624,4.5528 L7.8372,4.5528 L7.8372,6.58336 L8.2852,6.58336 L8.2852,5.8828 L8.78248,5.8828 C9.03896,5.8828 9.23384,5.87384 9.40688,5.75176 C9.56648,5.63808 9.64432,5.46448 9.64432,5.21864 C9.64432,4.96832 9.54632,4.77288 9.36208,4.65472 M8.78584,5.50144 L8.2852,5.50144 L8.2852,4.93696 L8.76064,4.93696 C9.044,4.93696 9.14928,5.01312 9.14928,5.21864 C9.14928,5.41184 9.03392,5.50144 8.78584,5.50144" id="Fill-4" fill="#FFFFFF"></path>
                    <path d="M14.01176,5.1688 C14.01176,4.7488 13.78552,4.55224 13.29776,4.55224 L12.24608,4.55224 L12.24608,6.58336 L12.6924,6.58336 L12.6924,5.79656 L13.17064,5.79656 C13.17792,5.81 13.61192,6.58336 13.61192,6.58336 L14.11648,6.58336 C14.11648,6.58336 13.62872,5.76408 13.6136,5.73944 C13.86952,5.67672 14.01176,5.4768 14.01176,5.1688 M13.19752,5.41464 L12.6924,5.41464 L12.6924,4.9364 L13.19752,4.9364 C13.4372,4.9364 13.55816,4.97336 13.55816,5.1744 C13.55816,5.35416 13.46744,5.41464 13.19752,5.41464" id="Fill-5" fill="#FFFFFF"></path>
                    <g id="Group-27">
                        <mask id="mask-2" fill="white">
                            <use xlink:href="#path-1"></use>
                        </mask>
                        <g id="Clip-7"></g>
                        <polyline id="Fill-6" fill="#FFFFFF" mask="url(#mask-2)" points="14.31136 4.92856 14.9604 4.92856 14.9604 6.58392 15.4224 6.58392 15.4224 4.92856 16.0748 4.92856 16.0748 4.5528 14.31136 4.5528 14.31136 4.92856"></polyline>
                        <path d="M87.65288,2.12296 L91.14784,2.12296 C91.14784,2.54072 91.14784,12.13016 91.14784,13.99888 L92.88888,13.99888 C92.88888,12.13016 92.88888,2.54072 92.88888,2.12296 L96.38384,2.12296 L96.38384,0.37968 L87.65288,0.37968 L87.65288,2.12296" id="Fill-8" fill="#FFFFFF" mask="url(#mask-2)"></path>
                        <path d="M61.08144,0.35 L60.39824,0.35 C58.08712,0.35 56.0252,2.67568 56.0252,5.30432 L56.0252,6.73848 L57.76904,6.73848 L57.76904,5.66832 C57.76904,3.54648 58.82576,2.09888 60.73984,2.09888 C62.65392,2.09888 63.71176,3.54648 63.71176,5.66832 L63.71176,6.73848 L65.45448,6.73848 L65.45448,5.30432 C65.45448,2.67568 63.39312,0.35 61.08144,0.35" id="Fill-9" fill="#FFFFFF" mask="url(#mask-2)"></path>
                        <path d="M63.71176,8.68 C63.71176,10.80296 62.65392,12.25056 60.73984,12.25056 C58.82576,12.25056 57.76848,10.80296 57.76848,8.68 L57.76848,7.60928 L56.02464,7.60928 L56.02464,9.044 C56.02464,11.63176 58.02328,13.92272 60.29016,13.99888 L61.18952,13.99888 C63.4564,13.92272 65.45448,11.63176 65.45448,9.044 L65.45448,7.60984 L63.71176,7.60984 L63.71176,8.68" id="Fill-10" fill="#FFFFFF" mask="url(#mask-2)"></path>
                        <path d="M182.48552,0.35 L181.80176,0.35 C179.4912,0.35 177.42928,2.67568 177.42928,5.30432 L177.42928,6.73848 L179.17256,6.73848 L179.17256,5.66832 C179.17256,3.54648 180.2304,2.09888 182.14448,2.09888 C184.05856,2.09888 185.11584,3.54648 185.11584,5.66832 L185.11584,6.73848 L186.85912,6.73848 L186.85912,5.30432 C186.85912,2.67568 184.79776,0.35 182.48552,0.35" id="Fill-11" fill="#FFFFFF" mask="url(#mask-2)"></path>
                        <path d="M185.11528,8.68 C185.11528,10.80296 184.05856,12.25056 182.14448,12.25056 C180.2304,12.25056 179.17256,10.80296 179.17256,8.68 L179.17256,7.60928 L177.42872,7.60928 L177.42872,9.044 C177.42872,11.63176 179.42736,13.92272 181.6948,13.99888 L182.59416,13.99888 C184.86048,13.92272 186.85856,11.63176 186.85856,9.044 L186.85856,7.60984 L185.11528,7.60984 L185.11528,8.68" id="Fill-12" fill="#FFFFFF" mask="url(#mask-2)"></path>
                        <path d="M53.0572,7.20664 C52.4524,6.67184 51.77928,6.40472 50.57304,6.22048 L49.1624,5.99872 C48.50776,5.8912 47.89008,5.63752 47.55072,5.33792 C47.22368,5.04952 47.05792,4.60376 47.05792,4.01296 C47.05792,2.64432 47.97744,1.82672 49.51912,1.82672 C50.71976,1.82672 51.54072,2.13416 52.3516,2.8868 L52.53416,3.05704 L53.78072,1.7836 L53.5864,1.60496 C52.4216,0.532 51.25848,0.09408 49.57344,0.09408 C46.90896,0.09408 45.18752,1.6548 45.18752,4.0684 C45.18752,5.18728 45.54536,6.07824 46.25152,6.72 C46.84624,7.24864 47.68736,7.60536 48.75416,7.78008 L50.25832,8.02088 C51.1728,8.16424 51.44832,8.26504 51.81176,8.58816 C52.15392,8.89112 52.34264,9.408 52.34264,10.04304 C52.34264,11.41168 51.30048,12.22928 49.55496,12.22928 C48.10176,12.22928 47.19904,11.85856 46.22408,10.86288 L46.04152,10.6764 L44.74176,12.00416 L44.91592,12.1828 C46.17928,13.47304 47.51264,13.99888 49.51912,13.99888 C52.38072,13.99888 54.22984,12.43144 54.22984,10.00664 C54.22984,8.83792 53.82384,7.86912 53.0572,7.20664" id="Fill-13" fill="#FFFFFF" mask="url(#mask-2)"></path>
                        <path d="M164.3684,7.20664 C163.76416,6.67184 163.08936,6.40472 161.88368,6.22048 L160.4736,5.99872 C159.8184,5.8912 159.20072,5.63752 158.86136,5.33792 C158.53488,5.04952 158.36856,4.60376 158.36856,4.01296 C158.36856,2.64432 159.28808,1.82672 160.82976,1.82672 C162.0304,1.82672 162.85136,2.13416 163.6628,2.8868 L163.8448,3.05704 L165.09136,1.7836 L164.89704,1.60496 C163.73224,0.532 162.56912,0.09408 160.88408,0.09408 C158.2196,0.09408 156.49872,1.6548 156.49872,4.0684 C156.49872,5.18728 156.856,6.07824 157.56216,6.72 C158.15688,7.24864 158.998,7.60536 160.0648,7.78008 L161.56896,8.02088 C162.48288,8.16424 162.75952,8.26504 163.12296,8.58816 C163.46456,8.89112 163.65272,9.408 163.65272,10.04304 C163.65272,11.41168 162.61112,12.22928 160.86616,12.22928 C159.41296,12.22928 158.50968,11.85856 157.53528,10.86288 L157.35216,10.6764 L156.05184,12.00416 L156.22712,12.1828 C157.48992,13.47304 158.82384,13.99888 160.82976,13.99888 C163.69192,13.99888 165.54048,12.43144 165.54048,10.00664 C165.54048,8.83792 165.13448,7.86912 164.3684,7.20664" id="Fill-14" fill="#FFFFFF" mask="url(#mask-2)"></path>
                        <path d="M84.168,0.37912 C84.168,0.37912 84.16744,11.4604 84.16744,11.45872 C84.16744,12.06632 83.58224,12.54904 83.17176,12.54904 L80.15224,12.54904 C79.74176,12.54904 79.15712,12.06632 79.15712,11.45872 C79.15712,11.4604 79.15656,0.37912 79.15656,0.37912 L77.41608,0.37912 C77.41552,2.24784 77.41608,11.40888 77.41608,11.40888 C77.44688,12.00976 77.72464,13.99888 80.01952,13.99888 L83.30448,13.99888 C85.59992,13.99888 85.87768,12.00976 85.90792,11.40888 C85.90792,11.40888 85.90904,2.24784 85.90792,0.37912 L84.168,0.37912" id="Fill-15" fill="#FFFFFF" mask="url(#mask-2)"></path>
                        <path d="M41.55032,7.16632 C43.74328,5.586 43.1312,0.37912 39.01408,0.37912 L34.67688,0.37912 L34.67688,13.99944 L38.81248,13.99944 C45.29896,13.99944 43.1984,7.64792 41.55032,7.16632 L41.55032,7.16632 Z M36.41344,2.11568 L39.03536,2.11568 C41.90312,2.11568 41.65336,6.40248 39.41112,6.40248 C38.85112,6.40248 37.58272,6.42768 37.40744,6.42768 C36.99808,6.42768 36.414,5.94664 36.414,5.34072 C36.414,5.34352 36.41344,5.34688 36.41344,5.3508 L36.41344,2.11568 Z M39.04432,12.53448 L36.41344,12.53448 L36.41232,7.87472 L39.15296,7.87472 C41.74576,7.87472 42.7868,12.53448 39.04432,12.53448 L39.04432,12.53448 Z" id="Fill-16" fill="#FFFFFF" mask="url(#mask-2)"></path>
                        <path d="M68.92536,11.45928 C68.92536,11.4604 68.9248,0.37968 68.9248,0.37968 L67.18432,0.37968 C67.18376,2.2484 67.18432,11.40944 67.18432,11.40944 C67.21512,12.01032 67.49288,13.99888 69.78776,13.99888 L75.67728,13.99888 L75.67728,12.54848 L69.91992,12.54848 C69.51,12.54848 68.92536,12.06632 68.92536,11.45928" id="Fill-17" fill="#FFFFFF" mask="url(#mask-2)"></path>
                        <path d="M99.8704,11.45928 C99.8704,11.4604 99.86984,11.46096 99.86984,11.46208 L99.86984,7.86184 C99.86984,7.86184 101.47704,7.86352 104.87512,7.86352 L104.87512,6.41312 L100.86552,6.41312 C100.4556,6.41312 99.8704,5.93152 99.8704,5.32448 C99.8704,5.32728 99.86984,5.33064 99.86984,5.334 L99.86984,2.1224 L106.62176,2.1224 L106.62176,0.38248 L98.12992,0.37968 C98.12992,0.37968 98.12768,11.28008 98.12992,11.35176 L98.12992,11.40944 L98.13216,11.40944 C98.16352,12.01032 98.43848,13.99888 100.73336,13.99888 L106.62232,13.99888 L106.62232,12.54848 L100.86552,12.54848 C100.4556,12.54848 99.8704,12.06632 99.8704,11.45928" id="Fill-18" fill="#FFFFFF" mask="url(#mask-2)"></path>
                        <path d="M110.13912,2.12296 L113.63408,2.12296 C113.63408,2.54072 113.63408,12.13016 113.63408,13.99888 L115.37456,13.99888 C115.37456,12.13016 115.37456,2.54072 115.37456,2.12296 L118.87008,2.12296 L118.87008,0.37968 L110.13912,0.37968 L110.13912,2.12296" id="Fill-19" fill="#FFFFFF" mask="url(#mask-2)"></path>
                        <path d="M199.02904,0.37912 L199.02904,2.1224 L202.52344,2.1224 C202.52344,2.54128 202.52344,12.13016 202.52344,13.99888 L204.26504,13.99888 C204.26504,12.13016 204.26504,2.54128 204.26504,2.1224 L207.76,2.1224 L207.76,0.37912 L199.02904,0.37912" id="Fill-20" fill="#FFFFFF" mask="url(#mask-2)"></path>
                        <path d="M122.35664,11.45928 C122.35664,11.4604 122.35608,11.46096 122.35608,11.46208 L122.35608,7.86184 C122.35608,7.86184 123.96272,7.86352 127.36192,7.86352 L127.36192,6.41312 L123.35176,6.41312 C122.94128,6.41312 122.35664,5.93152 122.35664,5.32448 C122.35664,5.32728 122.35608,5.33064 122.35608,5.334 L122.35608,2.1224 L129.10744,2.1224 L129.10744,0.38248 L120.61616,0.37968 C120.61616,0.37968 120.6128,11.28008 120.61616,11.35176 L120.61616,11.40944 L120.61784,11.40944 C120.6492,12.01032 120.92472,13.99888 123.21848,13.99888 L129.10912,13.99888 L129.10912,12.54848 L123.35176,12.54848 C122.94128,12.54848 122.35664,12.06632 122.35664,11.45928" id="Fill-21" fill="#FFFFFF" mask="url(#mask-2)"></path>
                        <path d="M27.42544,0.37016 C26.1744,0.37016 25.77568,1.93032 25.77568,1.93032 L24.34152,6.41256 L17.5532,6.41256 C17.1696,3.01224 14.28504,0.36848 10.78224,0.36848 C7.27888,0.36848 4.39488,3.01224 4.01184,6.41256 L0,6.41256 L0,7.86352 L4.00064,7.86352 C4.34112,11.30864 7.24696,14 10.78224,14 C14.31696,14 17.22336,11.30864 17.56384,7.86352 L23.8784,7.86352 L21.91896,13.99104 L23.65888,13.99104 L25.56736,7.86352 L27.94736,7.86352 C29.1032,7.86352 29.59152,8.91744 29.74272,9.3464 L31.19144,13.99104 L32.93192,13.99104 L29.15864,1.92584 C29.15864,1.92584 28.71064,0.37016 27.42544,0.37016 L27.42544,0.37016 Z M10.78224,13.77208 C7.18144,13.77208 4.256,10.88304 4.19496,7.2968 L17.36896,7.2968 C17.30904,10.88304 14.38304,13.77208 10.78224,13.77208 L10.78224,13.77208 Z M4.19496,7.07168 C4.256,3.48488 7.18144,0.59584 10.78224,0.59584 C14.38304,0.59584 17.30904,3.48488 17.36896,7.07168 L4.19496,7.07168 Z M26.01928,6.41256 L27.42488,1.8984 L28.83048,6.41256 L26.01928,6.41256 L26.01928,6.41256 Z" id="Fill-22" fill="#FFFFFF" mask="url(#mask-2)"></path>
                        <path d="M136.36896,0.37016 C135.1168,0.37016 134.71808,1.93032 134.71808,1.93032 L130.86192,13.99104 L132.60184,13.99104 L134.51032,7.86352 L136.89032,7.86352 C138.04616,7.86352 138.53448,8.91744 138.68512,9.3464 L140.1344,13.99104 L141.87488,13.99104 L138.1016,1.92584 C138.1016,1.92584 137.6536,0.37016 136.36896,0.37016 M134.96168,6.41256 L136.36784,1.8984 L137.77344,6.41256 L134.96168,6.41256" id="Fill-23" fill="#FFFFFF" mask="url(#mask-2)"></path>
                        <path d="M172.33776,0.37184 L167.3476,0.37184 L167.3476,13.99104 L169.07968,13.99104 L169.07968,8.25552 C169.07968,8.25552 172.76336,8.25216 172.92184,8.25216 C174.8936,8.25216 175.6748,6.46744 175.68488,4.66872 C175.68488,4.66144 175.68488,4.02416 175.68488,4.01688 C175.68488,3.36336 175.53816,2.70816 175.23184,2.13752 C174.68472,1.12112 173.97184,0.37184 172.33776,0.37184 M173.90688,4.77624 C173.89176,5.75736 173.60112,6.72504 172.4968,6.72504 C172.05776,6.72504 170.11848,6.74688 170.03,6.74688 C169.62344,6.71496 169.08024,6.24848 169.08024,5.66272 C169.08024,5.66552 169.07968,2.1084 169.07968,2.1084 L172.16696,2.1084 C173.61344,2.1084 173.91416,3.12256 173.90688,4.12776 C173.90688,4.13392 173.90688,4.77008 173.90688,4.77624" id="Fill-24" fill="#FFFFFF" mask="url(#mask-2)"></path>
                        <path d="M197.27624,4.66872 C197.27624,4.66144 197.27624,4.02416 197.27624,4.01632 C197.2768,3.36336 197.13008,2.70816 196.82376,2.13808 C196.2772,1.12112 195.22216,0.37128 193.58864,0.37128 L188.59848,0.37128 L188.59848,13.99104 L190.33056,13.99104 L190.33056,8.25496 C190.33056,8.25496 191.55528,8.2544 192.62208,8.25384 C193.62336,8.36976 194.05792,9.28144 194.20072,9.7244 C194.35472,10.19872 195.53632,13.99104 195.53632,13.99104 L197.276242,13.99104 C197.276242,13.99104 196.04088,10.03744 195.78888,9.2624 C195.6892,8.95328 195.51448,8.49912 195.21992,8.064 C196.53648,7.56056 197.26896,6.11912 197.27624,4.66872 M195.49936,4.77624 C195.4848,5.75736 194.85256,6.72504 193.74824,6.72504 C193.30864,6.72504 191.36992,6.74688 191.28088,6.74688 C190.87544,6.71496 190.33112,6.24848 190.33112,5.66272 C190.33112,5.66608 190.33056,5.67 190.33056,5.67336 L190.33056,2.1084 L193.41896,2.1084 C194.86488,2.1084 195.50608,3.12256 195.49936,4.12776 C195.49936,4.13392 195.49936,4.77008 195.49936,4.77624" id="Fill-25" fill="#FFFFFF" mask="url(#mask-2)"></path>
                        <path d="M153.02392,0.37016 C151.77176,0.37016 151.3736,1.93032 151.3736,1.93032 L149.1812,10.73184 L146.9888,1.93032 C146.9888,1.93032 146.59008,0.37016 145.33848,0.37016 C143.5728,0.37016 143.60584,1.92584 143.60584,1.92584 L143.60696,13.99104 L145.34744,13.99104 L145.33904,1.8984 L148.25272,13.99104 L150.11024,13.99104 L153.02336,1.8984 L153.0144,13.99104 L154.75488,13.99104 L154.75712,1.92584 C154.75712,1.92584 154.79072,0.37016 153.02392,0.37016" id="Fill-26" fill="#FFFFFF" mask="url(#mask-2)"></path>
                    </g>
                </g>
            </g>
        </g>
    </g>
</svg>