<?xml version="1.0" encoding="UTF-8"?>
<svg width="134px" height="14px" viewBox="0 0 134 14" version="1.1" xmlns="http://www.w3.org/2000/svg" xmlns:xlink="http://www.w3.org/1999/xlink">
    <!-- Generator: Sketch 54.1 (76490) - https://sketchapp.com -->
    <title>ABSOLUTE RUN Logo POS</title>
    <desc>Created with Sketch.</desc>
    <defs>
        <polygon id="path-1" points="0.01 0.0198333333 133.307 0.0198333333 133.307 13 0.01 13"></polygon>
    </defs>
    <g id="Atome-&amp;-Moleküle" stroke="none" stroke-width="1" fill="none" fill-rule="evenodd">
        <g id="Konzeptdarstellung" transform="translate(-105.000000, -250.000000)">
            <g id="Konzeptdarstellung-/-Absolute-/-Run-/-Bandarole" transform="translate(30.000000, 246.000000)">
                <g id="ABSOLUTE-RUN-Logo-POS" transform="translate(75.000000, 4.000000)">
                    <path d="M9.079,7.38033333 C8.529,7.38033333 8.082,7.8275 8.082,8.37683333 C8.082,8.92616667 8.529,9.37316667 9.079,9.37316667 C9.62866667,9.37316667 10.0761667,8.92616667 10.0761667,8.37683333 C10.0761667,7.8275 9.62866667,7.38033333 9.079,7.38033333 M9.086,8.9825 C8.75533333,8.9825 8.48683333,8.71366667 8.48683333,8.38316667 C8.48683333,8.053 8.75533333,7.784 9.086,7.784 C9.41633333,7.784 9.685,8.053 9.685,8.38316667 C9.685,8.71366667 9.41633333,8.9825 9.086,8.9825 M6.9805,8.67116667 C7.0745,8.6505 7.24483333,8.61133333 7.33,8.583 C7.60716667,8.48816667 7.925,8.334 7.925,7.98566667 C7.925,7.74966667 7.8515,7.6015 7.68666667,7.50516667 C7.58583333,7.44633333 7.46066667,7.415 7.3245,7.415 L6.22133333,7.415 L6.22133333,7.7705 L7.14833333,7.7705 C7.35433333,7.7705 7.45033333,7.8375 7.45033333,7.98116667 C7.45033333,8.1105 7.25483333,8.18566667 7.06333333,8.242 L6.74716667,8.336 L6.74766667,8.33566667 C6.17516667,8.48833333 6.1765,8.86366667 6.17716667,9.16516667 L6.17716667,9.34933333 L7.9175,9.34933333 L7.9175,8.99733333 L6.62733333,8.99733333 C6.62816667,8.88233333 6.68983333,8.733 6.9805,8.67116667 M13.3621667,7.38033333 C12.8126667,7.38033333 12.3653333,7.8275 12.3653333,8.37683333 C12.3653333,8.92616667 12.8126667,9.37316667 13.3621667,9.37316667 C13.9111667,9.37316667 14.3581667,8.92616667 14.3581667,8.37683333 C14.3581667,7.8275 13.9111667,7.38033333 13.3621667,7.38033333 M13.3671667,8.9825 C13.0371667,8.9825 12.7688333,8.71366667 12.7688333,8.38316667 C12.7688333,8.053 13.0371667,7.784 13.3671667,7.784 C13.6981667,7.784 13.9671667,8.053 13.9671667,8.38316667 C13.9671667,8.71366667 13.6981667,8.9825 13.3671667,8.9825 M11.2205,7.38033333 C10.6703333,7.38033333 10.2233333,7.8275 10.2233333,8.37683333 C10.2233333,8.92616667 10.6703333,9.37316667 11.2205,9.37316667 C11.7698333,9.37316667 12.2168333,8.92616667 12.2168333,8.37683333 C12.2168333,7.8275 11.7698333,7.38033333 11.2205,7.38033333 M11.227,8.9825 C10.8966667,8.9825 10.628,8.71366667 10.628,8.38316667 C10.628,8.053 10.8966667,7.784 11.227,7.784 C11.557,7.784 11.825,8.053 11.825,8.38316667 C11.825,8.71366667 11.557,8.9825 11.227,8.9825" id="Fill-1" fill="#FFFFFF"></path>
                    <path d="M10.3936667,4.30783333 C9.84333333,4.30783333 9.3955,4.755 9.3955,5.30466667 C9.3955,5.854 9.84333333,6.30066667 10.3936667,6.30066667 C10.943,6.30066667 11.3896667,5.854 11.3896667,5.30466667 C11.3896667,4.755 10.943,4.30783333 10.3936667,4.30783333 M10.3998333,5.91 C10.0691667,5.91 9.80016667,5.6415 9.80016667,5.31083333 C9.80016667,4.98033333 10.0691667,4.711 10.3998333,4.711 C10.7298333,4.711 10.9983333,4.98033333 10.9983333,5.31083333 C10.9983333,5.6415 10.7298333,5.91 10.3998333,5.91" id="Fill-2" fill="#FFFFFF"></path>
                    <path d="M6.44533333,5.13583333 L5.91333333,5.13583333 C5.752,5.13583333 5.6735,5.07183333 5.6735,4.94066667 C5.6735,4.7745 5.76166667,4.70366667 5.969,4.70366667 L6.97333333,4.70366667 L6.97333333,4.33733333 L5.9105,4.33733333 C5.4385,4.33733333 5.22816667,4.52183333 5.22816667,4.93583333 C5.22816667,5.32233333 5.42816667,5.49483333 5.87666667,5.49483333 L6.34966667,5.49483333 C6.54766667,5.49483333 6.62116667,5.5515 6.62116667,5.7035 C6.62116667,5.85133333 6.54033333,5.90633333 6.323,5.90633333 L5.3055,5.90633333 L5.3055,6.2715 L6.38616667,6.2715 C6.8565,6.2715 7.06616667,6.09116667 7.06616667,5.6865 C7.06616667,5.29016667 6.89216667,5.13583333 6.44533333,5.13583333" id="Fill-3" fill="#FFFFFF"></path>
                    <path d="M8.91533333,4.43466667 C8.8055,4.3655 8.641,4.33716667 8.3475,4.33716667 L7.46316667,4.33716667 L7.46316667,6.27166667 L7.8895,6.27166667 L7.8895,5.60366667 L8.363,5.60366667 C8.60733333,5.60366667 8.793,5.59483333 8.95833333,5.47866667 C9.11,5.3715 9.18383333,5.20533333 9.18383333,4.97183333 C9.18383333,4.73316667 9.09083333,4.54716667 8.91533333,4.43466667 M8.36633333,5.241 L7.8895,5.241 L7.8895,4.70266667 L8.34216667,4.70266667 C8.61233333,4.70266667 8.713,4.77566667 8.713,4.97183333 C8.713,5.15533333 8.60266667,5.241 8.36633333,5.241" id="Fill-4" fill="#FFFFFF"></path>
                    <path d="M13.3433333,4.924 C13.3433333,4.52383333 13.1273333,4.33733333 12.6633333,4.33733333 L11.6613333,4.33733333 L11.6613333,6.27133333 L12.0873333,6.27133333 L12.0873333,5.52166667 L12.5416667,5.52166667 C12.5488333,5.53433333 12.962,6.27133333 12.962,6.27133333 L13.4426667,6.27133333 C13.4426667,6.27133333 12.978,5.49116667 12.9635,5.46666667 C13.2075,5.4075 13.3433333,5.217 13.3433333,4.924 M12.5675,5.15783333 L12.0873333,5.15783333 L12.0873333,4.70283333 L12.5675,4.70283333 C12.7953333,4.70283333 12.9108333,4.73766667 12.9108333,4.929 C12.9108333,5.10016667 12.8241667,5.15783333 12.5675,5.15783333" id="Fill-5" fill="#FFFFFF"></path>
                    <polyline id="Fill-6" fill="#FFFFFF" points="13.6281667 4.6955 14.2465 4.6955 14.2465 6.27166667 14.6868333 6.27166667 14.6868333 4.6955 15.3071667 4.6955 15.3071667 4.33716667 13.6281667 4.33716667 13.6281667 4.6955"></polyline>
                    <path d="M83.4686667,2.02316667 L86.7966667,2.02316667 C86.7966667,2.4215 86.7966667,11.5526667 86.797,13.3325 L88.4545,13.3325 C88.4548333,11.5526667 88.4545,2.4215 88.4548333,2.02316667 L91.7825,2.02316667 L91.7825,0.363 L83.4686667,0.363 L83.4686667,2.02316667" id="Fill-7" fill="#FFFFFF"></path>
                    <path d="M58.1655,0.335 L57.5148333,0.335 C55.3138333,0.335 53.3506667,2.54983333 53.3506667,5.05333333 L53.3506667,6.41866667 L55.0105,6.41866667 L55.0105,5.3995 C55.0105,3.379 56.0175,2 57.8401667,2 C59.663,2 60.6701667,3.379 60.6701667,5.3995 L60.6701667,6.41866667 L62.3298333,6.41866667 L62.3298333,5.05333333 C62.3298333,2.54983333 60.3666667,0.335 58.1655,0.335" id="Fill-8" fill="#FFFFFF"></path>
                    <path d="M60.6701667,8.268 C60.6701667,10.2885 59.663,11.6675 57.8403333,11.6675 C56.0178333,11.6675 55.0106667,10.2885 55.0106667,8.268 L55.0106667,7.24816667 L53.3506667,7.24783333 L53.3506667,8.61433333 C53.3506667,11.0786667 55.2533333,13.2598333 57.4125,13.3325 L58.268,13.3325 C60.4275,13.2598333 62.3301667,11.0786667 62.3301667,8.61433333 L62.3301667,7.2485 L60.6701667,7.2485 L60.6701667,8.268" id="Fill-9" fill="#FFFFFF"></path>
                    <path d="M50.5245,6.86433333 C49.9488333,6.35516667 49.3078333,6.1005 48.1585,5.92533333 L46.8153333,5.71416667 C46.1918333,5.61133333 45.604,5.37016667 45.281,5.08516667 C44.9691667,4.8105 44.8111667,4.38583333 44.8111667,3.82333333 C44.8111667,2.51966667 45.6875,1.74166667 47.1553333,1.74166667 C48.2986667,1.74166667 49.0803333,2.03433333 49.8525,2.75133333 L50.0261667,2.9125 L51.213,1.7005 L51.0281667,1.53016667 C49.919,0.508833333 48.812,0.0918333333 47.2066667,0.0918333333 C44.6701667,0.0918333333 43.0306667,1.57716667 43.0306667,3.87616667 C43.0306667,4.94133333 43.371,5.79016667 44.0435,6.40066667 C44.6095,6.90416667 45.411,7.24416667 46.4266667,7.41066667 L47.8588333,7.63966667 C48.7295,7.7765 48.9926667,7.8725 49.339,8.18 C49.6641667,8.46883333 49.8436667,8.96133333 49.8436667,9.56583333 C49.8436667,10.8691667 48.8511667,11.6471667 47.1893333,11.6471667 C45.8056667,11.6471667 44.9456667,11.2948333 44.0176667,10.3463333 L43.8436667,10.1688333 L42.6055,11.433 L42.7725,11.6033333 C43.975,12.8311667 45.2445,13.3321667 47.1553333,13.3321667 C49.8805,13.3321667 51.6416667,11.84 51.6416667,9.53033333 C51.6416667,8.41783333 51.2545,7.49533333 50.5245,6.86433333" id="Fill-10" fill="#FFFFFF"></path>
                    <path d="M80.15,0.363166667 C80.15,0.363166667 80.1493333,10.915 80.1493333,10.914 C80.1493333,11.4926667 79.5926667,11.9511667 79.2016667,11.9511667 L76.3256667,11.9511667 C75.935,11.9511667 75.3785,11.4926667 75.3785,10.914 C75.3785,10.915 75.3775,0.363166667 75.3775,0.363166667 L73.7203333,0.363166667 C73.72,2.14283333 73.7203333,10.866 73.7203333,10.866 L73.7203333,10.8663333 C73.7496667,11.4385 74.0143333,13.3321667 76.1996667,13.3321667 L79.3283333,13.3321667 C81.513,13.3321667 81.7776667,11.4385 81.8073333,10.8663333 C81.8073333,10.8663333 81.8076667,2.14283333 81.8073333,0.363166667 L80.15,0.363166667" id="Fill-11" fill="#FFFFFF"></path>
                    <path d="M121.234333,0.363166667 C121.234333,0.363166667 121.233667,10.915 121.233667,10.914 C121.233667,11.4926667 120.676833,11.9511667 120.286167,11.9511667 L117.410167,11.9511667 C117.019333,11.9511667 116.462667,11.4926667 116.462667,10.914 C116.462667,10.915 116.462,0.363166667 116.462,0.363166667 L114.804426,0.363166667 C114.804333,2.14283333 114.8045,10.866 114.8045,10.866 L114.8045,10.8663333 C114.834167,11.4385 115.098833,13.3321667 117.284,13.3321667 L120.412667,13.3321667 C122.597333,13.3321667 122.862167,11.4385 122.8915,10.8663333 C122.8915,10.8663333 122.891833,2.14283333 122.8915,0.363166667 L121.234333,0.363166667" id="Fill-12" fill="#FFFFFF"></path>
                    <path d="M39.567,6.82666667 C41.6545,5.32066667 41.0718333,0.363 37.1513333,0.363 L33.0218333,0.363 L33.0218333,13.3323333 L36.9595,13.3323333 C43.1363333,13.3323333 41.1363333,7.28483333 39.567,6.82666667 L39.567,6.82666667 Z M34.675,2.01683333 L37.172,2.01683333 C39.9028333,2.01683333 39.6645,6.09866667 37.5296667,6.09866667 C36.996,6.09866667 35.789,6.1225 35.6218333,6.1225 C35.2318333,6.1225 34.6763333,5.66466667 34.6763333,5.08733333 C34.6763333,5.09016667 34.6755,5.094 34.675,5.097 L34.675,2.01683333 Z M37.1801667,11.9383333 L34.675,11.9383333 L34.6743333,7.50033333 L37.2841667,7.50033333 C39.7533333,7.50033333 40.7441667,11.9383333 37.1801667,11.9383333 L37.1801667,11.9383333 Z" id="Fill-13" fill="#FFFFFF"></path>
                    <path d="M65.635,10.9141667 C65.635,10.9151667 65.6343333,0.363166667 65.6343333,0.363166667 L63.9766667,0.363166667 C63.9763333,2.14283333 63.977,10.866 63.977,10.866 C64.0061667,11.4385 64.2708333,13.3323333 66.456,13.3323333 L72.0646667,13.3323333 L72.0646667,11.9513333 L66.5823333,11.9513333 C66.1913333,11.9513333 65.635,11.4925 65.635,10.9141667" id="Fill-14" fill="#FFFFFF"></path>
                    <g id="Group-19" transform="translate(0.000000, 0.333333)">
                        <mask id="mask-2" fill="white">
                            <use xlink:href="#path-1"></use>
                        </mask>
                        <g id="Clip-16"></g>
                        <path d="M95.103,10.5808333 C95.103,10.5818333 95.1023333,10.5825 95.1023333,10.5836667 L95.1023333,7.15516667 C95.1023333,7.15516667 96.6325,7.1565 99.869,7.1565 L99.869,5.77566667 L96.0505,5.77566667 C95.6601667,5.77566667 95.103,5.31683333 95.103,4.73833333 C95.103,4.74116667 95.1023333,4.745 95.1023333,4.74783333 L95.1023333,1.68933333 L101.531667,1.68933333 L101.531667,0.0323333333 L93.4455,0.0298333333 C93.4455,0.0298333333 93.4428333,10.4101667 93.4455,10.4785 L93.4455,10.5328333 L93.4475,10.5328333 C93.4768333,11.1053333 93.7391667,12.999 95.9241667,12.999 L101.532833,12.999 L101.532833,11.618 L96.0505,11.618 C95.6601667,11.618 95.103,11.1591667 95.103,10.5808333" id="Fill-15" fill="#FFFFFF" mask="url(#mask-2)"></path>
                        <path d="M26.1163333,0.0211666667 C24.9246667,0.0211666667 24.5451667,1.5065 24.5451667,1.5065 L23.18,5.77516667 L16.7153333,5.77516667 C16.3501667,2.53683333 13.6035,0.0198333333 10.2675,0.0198333333 C6.93183333,0.0198333333 4.185,2.53683333 3.82016667,5.77516667 L0,5.77516667 L0,7.15616667 L3.80983333,7.15616667 C4.13383333,10.437 6.90133333,13 10.2675,13 C13.634,13 16.4011667,10.437 16.7256667,7.15616667 L22.7383333,7.15616667 L20.8723333,12.9916667 L22.5296667,12.9916667 L24.3471667,7.15616667 L26.6136667,7.15616667 C27.7135,7.15616667 28.1786667,8.16083333 28.3225,8.56883333 L29.7023333,12.9916667 L31.3593333,12.9916667 L27.7666667,1.503 C27.7666667,1.503 27.3401667,0.0211666667 26.1163333,0.0211666667 L26.1163333,0.0211666667 Z M10.2675,12.7836667 C6.8385,12.7836667 4.05266667,10.0325 3.99533333,6.6175 L16.54,6.6175 C16.4828333,10.0325 13.6966667,12.7836667 10.2675,12.7836667 L10.2675,12.7836667 Z M3.99533333,6.40233333 C4.05266667,2.987 6.8385,0.236166667 10.2675,0.236166667 C13.6966667,0.236166667 16.4828333,2.987 16.54,6.40233333 L3.99533333,6.40233333 Z M24.7773333,5.77516667 L26.116,1.47616667 L27.4548333,5.77516667 L24.7773333,5.77516667 L24.7773333,5.77516667 Z" id="Fill-17" fill="#FFFFFF" mask="url(#mask-2)"></path>
                        <path d="M131.65,0.0225 L131.65,11.3366667 C129.752333,11.3356667 129.785833,6.52583333 129.788833,4.00233333 C129.788833,3.93533333 129.788833,3.70866667 129.788833,3.64516667 C129.788833,1.89066667 128.534333,0.024 126.055333,0.024 C126.0125,0.024 124.576833,0.0225 124.576833,0.0225 L124.576833,12.9916667 L126.234,12.9916667 L126.234,1.683 C127.545833,1.73833333 128.0955,2.7015 128.0955,3.6455 C128.0955,3.7325 128.094833,3.98716667 128.094167,4.086 C128.076167,6.64616667 127.906333,12.9916667 131.829833,12.9916667 C131.911667,12.9916667 133.307167,12.9916667 133.307167,12.9916667 L133.307167,0.0225 L131.65,0.0225" id="Fill-18" fill="#FFFFFF" mask="url(#mask-2)"></path>
                    </g>
                    <path d="M113.1445,4.44766667 C113.1445,4.44066667 113.1445,3.83366667 113.1445,3.82683333 C113.145,3.20416667 113.005,2.581 112.713,2.03783333 C112.192667,1.06933333 111.188833,0.355833333 109.633167,0.355833333 L104.880833,0.355833333 L104.880833,13.325 L106.529833,13.325 L106.529833,7.86333333 C106.529833,7.86333333 107.695833,7.86233333 108.7125,7.86116667 C109.665667,7.97183333 110.079833,8.84 110.216333,9.26216667 C110.3625,9.71416667 111.487667,13.325 111.487667,13.325 L113.144501,13.325 C113.144501,13.325 111.968,9.56066667 111.728,8.82166667 C111.632833,8.528 111.466333,8.0955 111.186,7.68083333 C112.440333,7.20133333 113.137333,5.829 113.1445,4.44766667 M111.452167,4.54983333 C111.438333,5.4845 110.8365,6.40566667 109.7845,6.40566667 C109.366167,6.40566667 107.520167,6.42666667 107.435167,6.42666667 C107.048167,6.39666667 106.530833,5.95166667 106.530833,5.39433333 C106.530833,5.39716667 106.530167,5.40083333 106.529833,5.404 L106.529833,2.0095 L109.4705,2.0095 C110.848167,2.0095 111.459,2.9755 111.452167,3.9325 C111.452167,3.9385 111.452167,4.54433333 111.452167,4.54983333" id="Fill-20" fill="#FFFFFF"></path>
                </g>
            </g>
        </g>
    </g>
</svg>