<?xml version="1.0" encoding="UTF-8"?>
<svg width="20px" height="18px" viewBox="0 0 20 18" version="1.1" xmlns="http://www.w3.org/2000/svg" xmlns:xlink="http://www.w3.org/1999/xlink">
    <!-- Generator: Sketch 54.1 (76490) - https://sketchapp.com -->
    <title>Icon / Print</title>
    <desc>Created with Sketch.</desc>
    <g id="Icon-/-Print" stroke="none" stroke-width="1" fill="none" fill-rule="evenodd">
        <path d="M17,5 L3,5 C1.34,5 0,6.34 0,8 L0,14 L4,14 L4,18 L16,18 L16,14 L20,14 L20,8 C20,6.34 18.66,5 17,5 L17,5 Z M14,16 L6,16 L6,11 L14,11 L14,16 L14,16 Z M17,9 C16.45,9 16,8.55 16,8 C16,7.45 16.45,7 17,7 C17.55,7 18,7.45 18,8 C18,8.55 17.55,9 17,9 L17,9 Z M16,0 L4,0 L4,4 L16,4 L16,0 L16,0 Z" id="Mask" fill="#00ABBE"></path>
    </g>
</svg>