<?xml version="1.0" encoding="UTF-8"?>
<svg width="39px" height="39px" viewBox="0 0 39 39" version="1.1" xmlns="http://www.w3.org/2000/svg" xmlns:xlink="http://www.w3.org/1999/xlink">
    <!-- Generator: Sketch 54.1 (76490) - https://sketchapp.com -->
    <title>Icon / Facebook</title>
    <desc>Created with Sketch.</desc>
    <g id="Icon-/-Facebook" stroke="none" stroke-width="1" fill="none" fill-rule="evenodd">
        <path d="M24.5,19.5000392 L21.3,19.5000392 L21.3,31.2000392 L17,31.2000392 L17,19.5000392 L14,19.5000392 L14,15.5000392 L16.9,15.5000392 L16.9,13.1000392 C16.9,9.80003921 17.8,7.80003921 21.7,7.80003921 L24.9,7.80003921 L24.9,11.8000392 L22.9,11.8000392 C21.4,11.8000392 21.3,12.4000392 21.3,13.4000392 L21.3,15.4000392 L25,15.4000392 L24.5,19.5000392 Z" id="Path" fill="#E5E5E5" fill-rule="nonzero"></path>
        <path d="M19.502006,1.0000372 L19.5,1.00003921 C9.28273213,1.00003921 1,9.28277134 1,19.5000392 C1,29.7173071 9.28273213,38.0000392 19.5,38.0000392 C29.7172679,38.0000392 38,29.7173071 38.000002,19.4980332 C38.0098496,14.5890474 36.0641216,9.87828592 32.5929374,6.40710177 C29.1217533,2.93591762 24.4109918,0.990189657 19.502006,1.0000372 Z" id="Path" stroke="#E5E5E5" stroke-width="2"></path>
    </g>
</svg>