<?xml version="1.0" encoding="UTF-8"?>
<svg width="39px" height="39px" viewBox="0 0 39 39" version="1.1" xmlns="http://www.w3.org/2000/svg" xmlns:xlink="http://www.w3.org/1999/xlink">
    <!-- Generator: Sketch 54.1 (76490) - https://sketchapp.com -->
    <title>Group</title>
    <desc>Created with Sketch.</desc>
    <g id="Symbols" stroke="none" stroke-width="1" fill="none" fill-rule="evenodd">
        <g id="Icon-/-Facebook-Hover">
            <g id="Group" transform="translate(-0.000000, -0.000000)">
                <circle id="Oval" fill="#FFFFFF" cx="20" cy="20" r="15"></circle>
                <path d="M24.5,19.5000392 L21.3,19.5000392 L21.3,31.2000392 L17,31.2000392 L17,19.5000392 L14,19.5000392 L14,15.5000392 L16.9,15.5000392 L16.9,13.1000392 C16.9,9.80003921 17.8,7.80003921 21.7,7.80003921 L24.9,7.80003921 L24.9,11.8000392 L22.9,11.8000392 C21.4,11.8000392 21.3,12.4000392 21.3,13.4000392 L21.3,15.4000392 L25,15.4000392 L24.5,19.5000392 Z M19.5,3.92132334e-05 C8.73044738,3.92132334e-05 8.75286455e-13,8.73048659 8.73967565e-13,19.5000392 C8.72648675e-13,30.2695918 8.73044738,39.0000392 19.5,39.0000392 C30.2695526,39.0000392 39,30.2695918 39,19.5000392 C39.010381,14.3251422 36.9592563,9.3592071 33.3000442,5.69999499 C29.6408321,2.04078288 24.674897,-0.0103417549 19.5,3.92132334e-05 L19.5,3.92132334e-05 Z" id="Shape" fill="#00ABBE"></path>
            </g>
        </g>
    </g>
</svg>