<?xml version="1.0" encoding="UTF-8"?>
<svg width="39px" height="39px" viewBox="0 0 39 39" version="1.1" xmlns="http://www.w3.org/2000/svg" xmlns:xlink="http://www.w3.org/1999/xlink">
    <!-- Generator: Sketch 54.1 (76490) - https://sketchapp.com -->
    <title>Icon / Youtube</title>
    <desc>Created with Sketch.</desc>
    <g id="Icon-/-Youtube" stroke="none" stroke-width="1" fill="none" fill-rule="evenodd">
        <path d="M31.3,22.9 C31.2955955,25.6043688 29.1043688,27.7955955 26.4,27.8 L12.6,27.8 C9.89563124,27.7955955 7.70440452,25.6043688 7.7,22.9 L7.7,16.1 C7.70440452,13.3956312 9.89563124,11.2044045 12.6,11.2 L26.4,11.2 C29.1043688,11.2044045 31.2955955,13.3956312 31.3,16.1 L31.3,22.9 Z M16.6,16.1 L16.5,16.1 C16.3383558,16.1093724 16.2093724,16.2383558 16.2,16.4 L16.2,22.8 C16.3,22.9 16.4,23 16.5,22.9 L22.9,19.8 L23,19.7 C23.0380138,19.649559 23.0487881,19.5836484 23.0288147,19.5237284 C23.0088414,19.4638084 22.9606756,19.4175445 22.9,19.4 L16.6,16.1 Z" id="Combined-Shape" fill="#E5E5E5" fill-rule="nonzero"></path>
        <path d="M19.502006,0.999997988 L19.5,1 C9.28273213,1 1,9.28273213 1,19.5 C1,29.7172679 9.28273213,38 19.5,38 C29.7172679,38 38,29.7172679 38.000002,19.497994 C38.0098496,14.5890082 36.0641216,9.87824671 32.5929374,6.40706256 C29.1217533,2.9358784 24.4109918,0.990150444 19.502006,0.999997988 Z" id="Path" stroke="#E5E5E5" stroke-width="2"></path>
    </g>
</svg>