<?xml version="1.0" encoding="UTF-8"?>
<svg width="39px" height="39px" viewBox="0 0 39 39" version="1.1" xmlns="http://www.w3.org/2000/svg" xmlns:xlink="http://www.w3.org/1999/xlink">
    <!-- Generator: Sketch 54.1 (76490) - https://sketchapp.com -->
    <title>Group</title>
    <desc>Created with Sketch.</desc>
    <g id="Symbols" stroke="none" stroke-width="1" fill="none" fill-rule="evenodd">
        <g id="Icon-/-Youtube-Hover">
            <g id="Group" transform="translate(0.000000, -0.000039)">
                <path d="M19.5,3.92132334e-05 C8.73044738,3.92132334e-05 8.75286455e-13,8.73048659 8.73967565e-13,19.5000392 C8.72648675e-13,30.2695918 8.73044738,39.0000392 19.5,39.0000392 C30.2695526,39.0000392 39,30.2695918 39,19.5000392 C39.010381,14.3251422 36.9592563,9.3592071 33.3000442,5.69999499 C29.6408321,2.04078288 24.674897,-0.0103417549 19.5,3.92132334e-05 Z" id="Path" fill="#00ABBE"></path>
                <path d="M31.3,22.9000392 C31.2955955,25.604408 29.1043688,27.7956347 26.4,27.8000392 L12.6,27.8000392 C9.89563124,27.7956347 7.70440452,25.604408 7.7,22.9000392 L7.7,16.1000392 C7.70440452,13.3956705 9.89563124,11.2044437 12.6,11.2000392 L26.4,11.2000392 C29.1043688,11.2044437 31.2955955,13.3956705 31.3,16.1000392 L31.3,22.9000392 Z M16.6,16.1000392 L16.5,16.1000392 C16.3383558,16.1094116 16.2093724,16.238395 16.2,16.4000392 L16.2,22.8000392 C16.3,22.9000392 16.4,23.0000392 16.5,22.9000392 L22.9,19.8000392 L23,19.7000392 C23.0380138,19.6495982 23.0487881,19.5836876 23.0288147,19.5237676 C23.0088414,19.4638476 22.9606756,19.4175837 22.9,19.4000392 L16.6,16.1000392 Z" id="Combined-Shape" fill="#FFFFFF" fill-rule="nonzero"></path>
            </g>
        </g>
    </g>
</svg>