<?xml version="1.0" encoding="UTF-8"?>
<svg width="28px" height="32px" viewBox="0 0 28 32" version="1.1" xmlns="http://www.w3.org/2000/svg" xmlns:xlink="http://www.w3.org/1999/xlink">
    <!-- Generator: Sketch 54.1 (76490) - https://sketchapp.com -->
    <title>Icon / Delete</title>
    <desc>Created with Sketch.</desc>
    <g id="Icon-/-Delete" stroke="none" stroke-width="1" fill="none" fill-rule="evenodd">
        <path d="M27,4 L20,4 L20,2.95 C20,1.32075999 18.67924,9.97621783e-17 17.05,0 L10.95,0 C9.32075999,-9.97621783e-17 8,1.32075999 8,2.95 L8,4 L1,4 C0.44771525,4 0,4.44771525 0,5 C0,5.55228475 0.44771525,6 1,6 L2.85,6 L4.25,28.6 C4.30230329,30.4556717 5.79432828,31.9476967 7.65,32 L20.35,32 C22.2251681,31.9739698 23.7465993,30.4745883 23.8,28.6 L25.15,6 L27,6 C27.5522847,6 28,5.55228475 28,5 C28,4.44771525 27.5522847,4 27,4 Z M10,2.95 C10,2.42532949 10.4253295,2 10.95,2 L17.05,2 C17.3019557,2 17.5435919,2.100089 17.7217514,2.27824856 C17.899911,2.45640812 18,2.69804433 18,2.95 L18,4 L10,4 L10,2.95 Z M10.05,28 L10,28 C9.46666651,28.0006671 9.02666628,27.5826668 9,27.05 L8,9.05 C7.97238577,8.49771526 8.39771526,8.02761426 8.95,8.00000002 C9.50228474,7.97238578 9.97238575,8.39771526 10,8.95 L11,26.95 C11.0135975,27.2153014 10.9210745,27.4751106 10.7428466,27.6720993 C10.5646187,27.8690881 10.3153346,27.9870657 10.05,28 Z M15,27 C15,27.5522847 14.5522847,28 14,28 C13.4477153,28 13,27.5522847 13,27 L13,9 C13,8.44771525 13.4477153,8 14,8 C14.5522847,8 15,8.44771525 15,9 L15,27 Z M19,27.05 C18.9733337,27.5826668 18.5333335,28.0006671 18,28 L17.95,28 C17.6846654,27.9870657 17.4353813,27.8690881 17.2571534,27.6720993 C17.0789255,27.4751106 16.9864025,27.2153014 17,26.95 L18,8.95 C18.0276142,8.39771526 18.4977153,7.97238578 19.05,8.00000002 C19.6022847,8.02761426 20.0276142,8.49771526 20,9.05 L19,27.05 Z" id="Shape" fill="#FFFFFF" fill-rule="nonzero"></path>
    </g>
</svg>