<?xml version="1.0" encoding="UTF-8"?>
<svg width="70px" height="50px" viewBox="0 0 70 50" version="1.1" xmlns="http://www.w3.org/2000/svg" xmlns:xlink="http://www.w3.org/1999/xlink">
    <!-- Generator: Sketch 56.3 (81716) - https://sketch.com -->
    <title>Konzeptdarstellung / Laufprofi</title>
    <desc>Created with Sketch.</desc>
    <g id="Atome-&amp;-Moleküle" stroke="none" stroke-width="1" fill="none" fill-rule="evenodd">
        <g id="Konzeptdarstellung" transform="translate(-116.000000, -129.000000)">
            <g id="Konzeptdarstellung-/-Content-Flag-/-Laufprofi-Desktop" transform="translate(116.000000, 129.000000)">
                <path d="M0,0 L70,0 L70,46 C70,48.209139 68.209139,50 66,50 L4,50 C1.790861,50 2.705415e-16,48.209139 0,46 L0,0 Z" id="Rectangle" fill="#FFFFFF" fill-rule="evenodd"></path>
                <path d="M7.338,20.802 L7.338,27.256 C7.338,27.83 7.408,28.054 7.674,28.32 C7.926,28.572 8.164,28.656 8.696,28.656 L11.65,28.656 C11.748,28.656 11.79,28.698 11.79,28.796 L11.79,29.86 C11.79,29.958 11.748,30 11.65,30 L8.64,30 C7.73,30 7.1,29.776 6.582,29.244 C5.98,28.656 5.826,28.166 5.826,26.864 L5.826,20.802 C5.826,20.704 5.868,20.662 5.966,20.662 L7.198,20.662 C7.296,20.662 7.338,20.704 7.338,20.802 Z M17.866,26.878 L14.282,26.878 L14.282,29.86 C14.282,29.958 14.24,30 14.142,30 L12.91,30 C12.812,30 12.77,29.958 12.77,29.86 L12.77,23.714 C12.77,22.412 12.924,21.922 13.526,21.334 C14.044,20.802 14.66,20.578 15.584,20.578 L16.564,20.578 C17.488,20.578 18.104,20.802 18.622,21.334 C19.224,21.922 19.378,22.412 19.378,23.714 L19.378,29.86 C19.378,29.958 19.336,30 19.238,30 L18.006,30 C17.908,30 17.866,29.958 17.866,29.86 L17.866,26.878 Z M14.282,25.534 L17.866,25.534 L17.866,23.322 C17.866,22.748 17.796,22.524 17.53,22.258 C17.278,22.006 17.04,21.922 16.508,21.922 L15.64,21.922 C15.108,21.922 14.87,22.006 14.618,22.258 C14.352,22.524 14.282,22.748 14.282,23.322 L14.282,25.534 Z M21.184,20.662 L22.416,20.662 C22.514,20.662 22.556,20.704 22.556,20.802 L22.556,27.34 C22.556,27.914 22.626,28.138 22.892,28.404 C23.158,28.67 23.382,28.74 23.956,28.74 L24.754,28.74 C25.328,28.74 25.552,28.67 25.818,28.404 C26.084,28.138 26.154,27.914 26.154,27.34 L26.154,20.802 C26.154,20.704 26.196,20.662 26.294,20.662 L27.526,20.662 C27.624,20.662 27.666,20.704 27.666,20.802 L27.666,26.948 C27.666,28.25 27.512,28.74 26.91,29.328 C26.392,29.86 25.776,30.084 24.852,30.084 L23.858,30.084 C22.934,30.084 22.318,29.86 21.8,29.328 C21.198,28.74 21.044,28.25 21.044,26.948 L21.044,20.802 C21.044,20.704 21.086,20.662 21.184,20.662 Z M30.844,24.666 L34.26,24.666 C34.358,24.666 34.4,24.708 34.4,24.806 L34.4,25.87 C34.4,25.968 34.358,26.01 34.26,26.01 L30.844,26.01 L30.844,29.86 C30.844,29.958 30.802,30 30.704,30 L29.472,30 C29.374,30 29.332,29.958 29.332,29.86 L29.332,23.812 C29.332,22.496 29.486,22.006 30.088,21.418 C30.606,20.886 31.236,20.662 32.146,20.662 L35.198,20.662 C35.296,20.662 35.338,20.704 35.338,20.802 L35.338,21.866 C35.338,21.964 35.296,22.006 35.198,22.006 L32.202,22.006 C31.67,22.006 31.432,22.09 31.18,22.342 C30.914,22.608 30.844,22.832 30.844,23.406 L30.844,24.666 Z M36.486,25.898 L39.076,25.898 C39.174,25.898 39.216,25.94 39.216,26.038 L39.216,27.004 C39.216,27.102 39.174,27.144 39.076,27.144 L36.486,27.144 C36.388,27.144 36.346,27.102 36.346,27.004 L36.346,26.038 C36.346,25.94 36.388,25.898 36.486,25.898 Z M7.436,40.486 L7.436,44 L6.064,44 C5.966,44 5.924,43.958 5.924,43.86 L5.924,34.802 C5.924,34.704 5.966,34.662 6.064,34.662 L9.704,34.662 C10.628,34.662 11.23,34.886 11.762,35.418 C12.322,35.964 12.518,36.538 12.518,37.574 C12.518,38.61 12.322,39.184 11.762,39.73 C11.244,40.262 10.614,40.486 9.704,40.486 L7.436,40.486 Z M7.436,39.142 L9.606,39.142 C10.18,39.142 10.404,39.072 10.67,38.806 C10.936,38.54 11.006,38.302 11.006,37.742 L11.006,37.406 C11.006,36.846 10.936,36.608 10.67,36.342 C10.418,36.076 10.18,36.006 9.648,36.006 L7.436,36.006 L7.436,39.142 Z M18.44,40.178 L20.75,43.874 C20.75,43.874 20.764,43.916 20.764,43.93 C20.764,43.972 20.722,44 20.666,44 L19.21,44 C19.112,44 19.084,43.986 19.028,43.902 L16.746,40.248 L15.43,40.248 L15.43,44 L14.058,44 C13.96,44 13.918,43.958 13.918,43.86 L13.918,34.802 C13.918,34.704 13.96,34.662 14.058,34.662 L17.698,34.662 C18.622,34.662 19.238,34.886 19.756,35.418 C20.288,35.936 20.512,36.552 20.512,37.448 C20.512,38.358 20.288,38.974 19.756,39.492 C19.378,39.884 18.986,40.08 18.44,40.178 Z M15.43,38.904 L17.614,38.904 C18.174,38.904 18.412,38.834 18.664,38.568 C18.93,38.302 19,38.064 19,37.504 L19,37.406 C19,36.846 18.93,36.608 18.664,36.342 C18.412,36.076 18.188,36.006 17.642,36.006 L15.43,36.006 L15.43,38.904 Z M28.492,37.714 L28.492,40.948 C28.492,42.25 28.338,42.74 27.736,43.328 C27.218,43.86 26.602,44.084 25.678,44.084 L24.684,44.084 C23.76,44.084 23.144,43.86 22.626,43.328 C22.024,42.74 21.87,42.25 21.87,40.948 L21.87,37.714 C21.87,36.412 22.024,35.922 22.626,35.334 C23.144,34.802 23.76,34.578 24.684,34.578 L25.678,34.578 C26.602,34.578 27.218,34.802 27.736,35.334 C28.338,35.922 28.492,36.412 28.492,37.714 Z M23.382,37.322 L23.382,41.34 C23.382,41.914 23.452,42.138 23.718,42.404 C23.984,42.67 24.208,42.74 24.782,42.74 L25.58,42.74 C26.154,42.74 26.378,42.67 26.644,42.404 C26.91,42.138 26.98,41.914 26.98,41.34 L26.98,37.322 C26.98,36.748 26.91,36.524 26.644,36.258 C26.392,36.006 26.154,35.922 25.622,35.922 L24.74,35.922 C24.208,35.922 23.97,36.006 23.718,36.258 C23.452,36.524 23.382,36.748 23.382,37.322 Z M31.572,38.666 L34.988,38.666 C35.086,38.666 35.128,38.708 35.128,38.806 L35.128,39.87 C35.128,39.968 35.086,40.01 34.988,40.01 L31.572,40.01 L31.572,43.86 C31.572,43.958 31.53,44 31.432,44 L30.2,44 C30.102,44 30.06,43.958 30.06,43.86 L30.06,37.812 C30.06,36.496 30.214,36.006 30.816,35.418 C31.334,34.886 31.964,34.662 32.874,34.662 L35.926,34.662 C36.024,34.662 36.066,34.704 36.066,34.802 L36.066,35.866 C36.066,35.964 36.024,36.006 35.926,36.006 L32.93,36.006 C32.398,36.006 32.16,36.09 31.908,36.342 C31.642,36.608 31.572,36.832 31.572,37.406 L31.572,38.666 Z M37.48,43.86 L37.48,34.802 C37.48,34.704 37.522,34.662 37.62,34.662 L38.852,34.662 C38.95,34.662 38.992,34.704 38.992,34.802 L38.992,43.86 C38.992,43.958 38.95,44 38.852,44 L37.62,44 C37.522,44 37.48,43.958 37.48,43.86 Z" id="LAUF-PROFI" fill="#121212" fill-rule="nonzero"></path>
            </g>
        </g>
    </g>
</svg>