<?xml version="1.0" encoding="UTF-8"?>
<svg width="70px" height="50px" viewBox="0 0 70 50" version="1.1" xmlns="http://www.w3.org/2000/svg" xmlns:xlink="http://www.w3.org/1999/xlink">
    <!-- Generator: Sketch 54.1 (76490) - https://sketchapp.com -->
    <title>Konzeptdarstellung / Outdoorprofi</title>
    <desc>Created with Sketch.</desc>
    <g id="Atome-&amp;-Moleküle" stroke="none" stroke-width="1" fill="none" fill-rule="evenodd">
        <g id="Konzeptdarstellung" transform="translate(-288.000000, -129.000000)">
            <g id="Konzeptdarstellung-/-Content-Flag-/-Outdoorprofi-Desktop" transform="translate(288.000000, 129.000000)">
                <path d="M0,0 L70,0 L70,46 C70,48.209139 68.209139,50 66,50 L4,50 C1.790861,50 2.705415e-16,48.209139 0,46 L0,0 Z" id="Rectangle" fill="#FF6D06" fill-rule="evenodd"></path>
                <path d="M12.364,23.714 L12.364,26.948 C12.364,28.25 12.21,28.74 11.608,29.328 C11.09,29.86 10.474,30.084 9.55,30.084 L8.556,30.084 C7.632,30.084 7.016,29.86 6.498,29.328 C5.896,28.74 5.742,28.25 5.742,26.948 L5.742,23.714 C5.742,22.412 5.896,21.922 6.498,21.334 C7.016,20.802 7.632,20.578 8.556,20.578 L9.55,20.578 C10.474,20.578 11.09,20.802 11.608,21.334 C12.21,21.922 12.364,22.412 12.364,23.714 Z M7.254,23.322 L7.254,27.34 C7.254,27.914 7.324,28.138 7.59,28.404 C7.856,28.67 8.08,28.74 8.654,28.74 L9.452,28.74 C10.026,28.74 10.25,28.67 10.516,28.404 C10.782,28.138 10.852,27.914 10.852,27.34 L10.852,23.322 C10.852,22.748 10.782,22.524 10.516,22.258 C10.264,22.006 10.026,21.922 9.494,21.922 L8.612,21.922 C8.08,21.922 7.842,22.006 7.59,22.258 C7.324,22.524 7.254,22.748 7.254,23.322 Z M14.072,20.662 L15.304,20.662 C15.402,20.662 15.444,20.704 15.444,20.802 L15.444,27.34 C15.444,27.914 15.514,28.138 15.78,28.404 C16.046,28.67 16.27,28.74 16.844,28.74 L17.642,28.74 C18.216,28.74 18.44,28.67 18.706,28.404 C18.972,28.138 19.042,27.914 19.042,27.34 L19.042,20.802 C19.042,20.704 19.084,20.662 19.182,20.662 L20.414,20.662 C20.512,20.662 20.554,20.704 20.554,20.802 L20.554,26.948 C20.554,28.25 20.4,28.74 19.798,29.328 C19.28,29.86 18.664,30.084 17.74,30.084 L16.746,30.084 C15.822,30.084 15.206,29.86 14.688,29.328 C14.086,28.74 13.932,28.25 13.932,26.948 L13.932,20.802 C13.932,20.704 13.974,20.662 14.072,20.662 Z M23.886,22.006 L21.604,22.006 C21.506,22.006 21.464,21.964 21.464,21.866 L21.464,20.802 C21.464,20.704 21.506,20.662 21.604,20.662 L27.75,20.662 C27.848,20.662 27.89,20.704 27.89,20.802 L27.89,21.866 C27.89,21.964 27.848,22.006 27.75,22.006 L25.398,22.006 L25.398,29.86 C25.398,29.958 25.356,30 25.258,30 L24.026,30 C23.928,30 23.886,29.958 23.886,29.86 L23.886,22.006 Z M35.366,23.798 L35.366,26.864 C35.366,28.166 35.212,28.656 34.61,29.244 C34.092,29.776 33.462,30 32.552,30 L29.01,30 C28.912,30 28.87,29.958 28.87,29.86 L28.87,20.802 C28.87,20.704 28.912,20.662 29.01,20.662 L32.552,20.662 C33.462,20.662 34.092,20.886 34.61,21.418 C35.212,22.006 35.366,22.496 35.366,23.798 Z M30.382,28.656 L32.454,28.656 C33.028,28.656 33.252,28.586 33.518,28.32 C33.784,28.054 33.854,27.83 33.854,27.256 L33.854,23.406 C33.854,22.832 33.784,22.608 33.518,22.342 C33.266,22.09 33.028,22.006 32.496,22.006 L30.382,22.006 L30.382,28.656 Z M43.472,23.714 L43.472,26.948 C43.472,28.25 43.318,28.74 42.716,29.328 C42.198,29.86 41.582,30.084 40.658,30.084 L39.664,30.084 C38.74,30.084 38.124,29.86 37.606,29.328 C37.004,28.74 36.85,28.25 36.85,26.948 L36.85,23.714 C36.85,22.412 37.004,21.922 37.606,21.334 C38.124,20.802 38.74,20.578 39.664,20.578 L40.658,20.578 C41.582,20.578 42.198,20.802 42.716,21.334 C43.318,21.922 43.472,22.412 43.472,23.714 Z M38.362,23.322 L38.362,27.34 C38.362,27.914 38.432,28.138 38.698,28.404 C38.964,28.67 39.188,28.74 39.762,28.74 L40.56,28.74 C41.134,28.74 41.358,28.67 41.624,28.404 C41.89,28.138 41.96,27.914 41.96,27.34 L41.96,23.322 C41.96,22.748 41.89,22.524 41.624,22.258 C41.372,22.006 41.134,21.922 40.602,21.922 L39.72,21.922 C39.188,21.922 38.95,22.006 38.698,22.258 C38.432,22.524 38.362,22.748 38.362,23.322 Z M51.578,23.714 L51.578,26.948 C51.578,28.25 51.424,28.74 50.822,29.328 C50.304,29.86 49.688,30.084 48.764,30.084 L47.77,30.084 C46.846,30.084 46.23,29.86 45.712,29.328 C45.11,28.74 44.956,28.25 44.956,26.948 L44.956,23.714 C44.956,22.412 45.11,21.922 45.712,21.334 C46.23,20.802 46.846,20.578 47.77,20.578 L48.764,20.578 C49.688,20.578 50.304,20.802 50.822,21.334 C51.424,21.922 51.578,22.412 51.578,23.714 Z M46.468,23.322 L46.468,27.34 C46.468,27.914 46.538,28.138 46.804,28.404 C47.07,28.67 47.294,28.74 47.868,28.74 L48.666,28.74 C49.24,28.74 49.464,28.67 49.73,28.404 C49.996,28.138 50.066,27.914 50.066,27.34 L50.066,23.322 C50.066,22.748 49.996,22.524 49.73,22.258 C49.478,22.006 49.24,21.922 48.708,21.922 L47.826,21.922 C47.294,21.922 47.056,22.006 46.804,22.258 C46.538,22.524 46.468,22.748 46.468,23.322 Z M57.766,26.178 L60.076,29.874 C60.076,29.874 60.09,29.916 60.09,29.93 C60.09,29.972 60.048,30 59.992,30 L58.536,30 C58.438,30 58.41,29.986 58.354,29.902 L56.072,26.248 L54.756,26.248 L54.756,30 L53.384,30 C53.286,30 53.244,29.958 53.244,29.86 L53.244,20.802 C53.244,20.704 53.286,20.662 53.384,20.662 L57.024,20.662 C57.948,20.662 58.564,20.886 59.082,21.418 C59.614,21.936 59.838,22.552 59.838,23.448 C59.838,24.358 59.614,24.974 59.082,25.492 C58.704,25.884 58.312,26.08 57.766,26.178 Z M54.756,24.904 L56.94,24.904 C57.5,24.904 57.738,24.834 57.99,24.568 C58.256,24.302 58.326,24.064 58.326,23.504 L58.326,23.406 C58.326,22.846 58.256,22.608 57.99,22.342 C57.738,22.076 57.514,22.006 56.968,22.006 L54.756,22.006 L54.756,24.904 Z M61.112,25.898 L63.702,25.898 C63.8,25.898 63.842,25.94 63.842,26.038 L63.842,27.004 C63.842,27.102 63.8,27.144 63.702,27.144 L61.112,27.144 C61.014,27.144 60.972,27.102 60.972,27.004 L60.972,26.038 C60.972,25.94 61.014,25.898 61.112,25.898 Z M7.436,40.486 L7.436,44 L6.064,44 C5.966,44 5.924,43.958 5.924,43.86 L5.924,34.802 C5.924,34.704 5.966,34.662 6.064,34.662 L9.704,34.662 C10.628,34.662 11.23,34.886 11.762,35.418 C12.322,35.964 12.518,36.538 12.518,37.574 C12.518,38.61 12.322,39.184 11.762,39.73 C11.244,40.262 10.614,40.486 9.704,40.486 L7.436,40.486 Z M7.436,39.142 L9.606,39.142 C10.18,39.142 10.404,39.072 10.67,38.806 C10.936,38.54 11.006,38.302 11.006,37.742 L11.006,37.406 C11.006,36.846 10.936,36.608 10.67,36.342 C10.418,36.076 10.18,36.006 9.648,36.006 L7.436,36.006 L7.436,39.142 Z M18.44,40.178 L20.75,43.874 C20.75,43.874 20.764,43.916 20.764,43.93 C20.764,43.972 20.722,44 20.666,44 L19.21,44 C19.112,44 19.084,43.986 19.028,43.902 L16.746,40.248 L15.43,40.248 L15.43,44 L14.058,44 C13.96,44 13.918,43.958 13.918,43.86 L13.918,34.802 C13.918,34.704 13.96,34.662 14.058,34.662 L17.698,34.662 C18.622,34.662 19.238,34.886 19.756,35.418 C20.288,35.936 20.512,36.552 20.512,37.448 C20.512,38.358 20.288,38.974 19.756,39.492 C19.378,39.884 18.986,40.08 18.44,40.178 Z M15.43,38.904 L17.614,38.904 C18.174,38.904 18.412,38.834 18.664,38.568 C18.93,38.302 19,38.064 19,37.504 L19,37.406 C19,36.846 18.93,36.608 18.664,36.342 C18.412,36.076 18.188,36.006 17.642,36.006 L15.43,36.006 L15.43,38.904 Z M28.492,37.714 L28.492,40.948 C28.492,42.25 28.338,42.74 27.736,43.328 C27.218,43.86 26.602,44.084 25.678,44.084 L24.684,44.084 C23.76,44.084 23.144,43.86 22.626,43.328 C22.024,42.74 21.87,42.25 21.87,40.948 L21.87,37.714 C21.87,36.412 22.024,35.922 22.626,35.334 C23.144,34.802 23.76,34.578 24.684,34.578 L25.678,34.578 C26.602,34.578 27.218,34.802 27.736,35.334 C28.338,35.922 28.492,36.412 28.492,37.714 Z M23.382,37.322 L23.382,41.34 C23.382,41.914 23.452,42.138 23.718,42.404 C23.984,42.67 24.208,42.74 24.782,42.74 L25.58,42.74 C26.154,42.74 26.378,42.67 26.644,42.404 C26.91,42.138 26.98,41.914 26.98,41.34 L26.98,37.322 C26.98,36.748 26.91,36.524 26.644,36.258 C26.392,36.006 26.154,35.922 25.622,35.922 L24.74,35.922 C24.208,35.922 23.97,36.006 23.718,36.258 C23.452,36.524 23.382,36.748 23.382,37.322 Z M31.572,38.666 L34.988,38.666 C35.086,38.666 35.128,38.708 35.128,38.806 L35.128,39.87 C35.128,39.968 35.086,40.01 34.988,40.01 L31.572,40.01 L31.572,43.86 C31.572,43.958 31.53,44 31.432,44 L30.2,44 C30.102,44 30.06,43.958 30.06,43.86 L30.06,37.812 C30.06,36.496 30.214,36.006 30.816,35.418 C31.334,34.886 31.964,34.662 32.874,34.662 L35.926,34.662 C36.024,34.662 36.066,34.704 36.066,34.802 L36.066,35.866 C36.066,35.964 36.024,36.006 35.926,36.006 L32.93,36.006 C32.398,36.006 32.16,36.09 31.908,36.342 C31.642,36.608 31.572,36.832 31.572,37.406 L31.572,38.666 Z M37.48,43.86 L37.48,34.802 C37.48,34.704 37.522,34.662 37.62,34.662 L38.852,34.662 C38.95,34.662 38.992,34.704 38.992,34.802 L38.992,43.86 C38.992,43.958 38.95,44 38.852,44 L37.62,44 C37.522,44 37.48,43.958 37.48,43.86 Z" id="OUTDOOR-PROFI" fill="#FFFFFF" fill-rule="nonzero"></path>
            </g>
        </g>
    </g>
</svg>