<?xml version="1.0" encoding="UTF-8"?>
<svg width="70px" height="50px" viewBox="0 0 70 50" version="1.1" xmlns="http://www.w3.org/2000/svg" xmlns:xlink="http://www.w3.org/1999/xlink">
    <!-- Generator: Sketch 54.1 (76490) - https://sketchapp.com -->
    <title>Konzeptdarstellung / Sneaker-Force</title>
    <desc>Created with Sketch.</desc>
    <g id="Atome-&amp;-Moleküle" stroke="none" stroke-width="1" fill="none" fill-rule="evenodd">
        <g id="Konzeptdarstellung" transform="translate(-374.000000, -129.000000)">
            <g id="Konzeptdarstellung-/-Content-Flag-/-Sneaker-Force" transform="translate(374.000000, 129.000000)">
                <path d="M0,0 L70,0 L70,46 C70,48.209139 68.209139,50 66,50 L4,50 C1.790861,50 2.705415e-16,48.209139 0,46 L0,0 Z" id="Rectangle" fill="#C41230" fill-rule="evenodd"></path>
                <path d="M9.13,30.084 L8.192,30.084 C7.254,30.084 6.624,29.86 6.134,29.342 C5.924,29.118 5.714,28.81 5.714,28.726 C5.714,28.684 5.728,28.656 5.784,28.614 L6.792,28.026 C6.806,28.012 6.848,27.998 6.862,27.998 C6.918,27.998 6.918,27.998 7.072,28.236 C7.324,28.614 7.632,28.74 8.276,28.74 L9.032,28.74 C9.62,28.74 9.83,28.67 10.096,28.404 C10.348,28.152 10.432,27.914 10.432,27.382 C10.432,26.836 10.348,26.598 10.096,26.346 C9.844,26.094 9.592,26.01 9.074,26.01 L8.5,26.01 C7.59,26.01 6.932,25.772 6.442,25.282 C5.952,24.778 5.686,24.12 5.686,23.364 C5.686,22.58 5.952,21.866 6.442,21.348 C6.946,20.802 7.562,20.578 8.5,20.578 L9.438,20.578 C10.39,20.578 11.006,20.802 11.496,21.32 C11.706,21.544 11.916,21.852 11.916,21.936 C11.916,21.978 11.902,22.006 11.832,22.048 L10.838,22.65 C10.782,22.678 10.782,22.678 10.768,22.678 C10.712,22.678 10.712,22.678 10.558,22.44 C10.306,22.048 9.998,21.922 9.34,21.922 L8.584,21.922 C8.01,21.922 7.8,21.992 7.534,22.258 C7.282,22.51 7.198,22.762 7.198,23.294 C7.198,23.826 7.282,24.078 7.534,24.33 C7.786,24.582 8.038,24.666 8.556,24.666 L9.13,24.666 C10.04,24.666 10.698,24.904 11.188,25.394 C11.678,25.898 11.944,26.556 11.944,27.312 C11.944,28.082 11.678,28.796 11.188,29.314 C10.684,29.846 10.068,30.084 9.13,30.084 Z M15.066,22.426 L15.066,29.86 C15.066,29.958 15.024,30 14.926,30 L13.694,30 C13.596,30 13.554,29.958 13.554,29.86 L13.554,21.124 C13.554,20.788 13.68,20.662 14.016,20.662 L15.388,20.662 C15.71,20.662 15.878,20.76 15.976,21.012 L18.664,28.236 L18.664,20.802 C18.664,20.704 18.706,20.662 18.804,20.662 L20.036,20.662 C20.134,20.662 20.176,20.704 20.176,20.802 L20.176,29.538 C20.176,29.874 20.05,30 19.714,30 L18.342,30 C18.02,30 17.852,29.902 17.754,29.65 L15.066,22.426 Z M23.354,24.666 L26.84,24.666 C26.938,24.666 26.98,24.708 26.98,24.806 L26.98,25.87 C26.98,25.968 26.938,26.01 26.84,26.01 L23.354,26.01 L23.354,27.256 C23.354,27.83 23.424,28.054 23.69,28.32 C23.956,28.586 24.18,28.656 24.754,28.656 L27.778,28.656 C27.876,28.656 27.918,28.698 27.918,28.796 L27.918,29.86 C27.918,29.958 27.876,30 27.778,30 L24.656,30 C23.746,30 23.116,29.776 22.598,29.244 C21.996,28.656 21.842,28.166 21.842,26.864 L21.842,23.812 C21.842,22.496 21.996,22.006 22.598,21.418 C23.116,20.886 23.746,20.662 24.656,20.662 L27.778,20.662 C27.876,20.662 27.918,20.704 27.918,20.802 L27.918,21.866 C27.918,21.964 27.876,22.006 27.778,22.006 L24.712,22.006 C24.18,22.006 23.942,22.09 23.69,22.342 C23.424,22.608 23.354,22.832 23.354,23.406 L23.354,24.666 Z M34.232,26.878 L30.648,26.878 L30.648,29.86 C30.648,29.958 30.606,30 30.508,30 L29.276,30 C29.178,30 29.136,29.958 29.136,29.86 L29.136,23.714 C29.136,22.412 29.29,21.922 29.892,21.334 C30.41,20.802 31.026,20.578 31.95,20.578 L32.93,20.578 C33.854,20.578 34.47,20.802 34.988,21.334 C35.59,21.922 35.744,22.412 35.744,23.714 L35.744,29.86 C35.744,29.958 35.702,30 35.604,30 L34.372,30 C34.274,30 34.232,29.958 34.232,29.86 L34.232,26.878 Z M30.648,25.534 L34.232,25.534 L34.232,23.322 C34.232,22.748 34.162,22.524 33.896,22.258 C33.644,22.006 33.406,21.922 32.874,21.922 L32.006,21.922 C31.474,21.922 31.236,22.006 30.984,22.258 C30.718,22.524 30.648,22.748 30.648,23.322 L30.648,25.534 Z M39.524,24.414 L42.492,20.76 C42.562,20.676 42.604,20.662 42.73,20.662 L44.228,20.662 C44.284,20.662 44.312,20.69 44.312,20.718 C44.312,20.732 44.312,20.746 44.284,20.774 L40.728,25.002 L44.522,29.888 C44.55,29.93 44.55,29.93 44.55,29.944 C44.55,29.972 44.522,30 44.466,30 L42.94,30 C42.814,30 42.758,29.972 42.702,29.902 L39.594,25.758 L39.02,25.758 L39.02,29.86 C39.02,29.958 38.978,30 38.88,30 L37.648,30 C37.55,30 37.508,29.958 37.508,29.86 L37.508,20.802 C37.508,20.704 37.55,20.662 37.648,20.662 L38.88,20.662 C38.978,20.662 39.02,20.704 39.02,20.802 L39.02,24.414 L39.524,24.414 Z M46.692,24.666 L50.178,24.666 C50.276,24.666 50.318,24.708 50.318,24.806 L50.318,25.87 C50.318,25.968 50.276,26.01 50.178,26.01 L46.692,26.01 L46.692,27.256 C46.692,27.83 46.762,28.054 47.028,28.32 C47.294,28.586 47.518,28.656 48.092,28.656 L51.116,28.656 C51.214,28.656 51.256,28.698 51.256,28.796 L51.256,29.86 C51.256,29.958 51.214,30 51.116,30 L47.994,30 C47.084,30 46.454,29.776 45.936,29.244 C45.334,28.656 45.18,28.166 45.18,26.864 L45.18,23.812 C45.18,22.496 45.334,22.006 45.936,21.418 C46.454,20.886 47.084,20.662 47.994,20.662 L51.116,20.662 C51.214,20.662 51.256,20.704 51.256,20.802 L51.256,21.866 C51.256,21.964 51.214,22.006 51.116,22.006 L48.05,22.006 C47.518,22.006 47.28,22.09 47.028,22.342 C46.762,22.608 46.692,22.832 46.692,23.406 L46.692,24.666 Z M57.094,26.178 L59.404,29.874 C59.404,29.874 59.418,29.916 59.418,29.93 C59.418,29.972 59.376,30 59.32,30 L57.864,30 C57.766,30 57.738,29.986 57.682,29.902 L55.4,26.248 L54.084,26.248 L54.084,30 L52.712,30 C52.614,30 52.572,29.958 52.572,29.86 L52.572,20.802 C52.572,20.704 52.614,20.662 52.712,20.662 L56.352,20.662 C57.276,20.662 57.892,20.886 58.41,21.418 C58.942,21.936 59.166,22.552 59.166,23.448 C59.166,24.358 58.942,24.974 58.41,25.492 C58.032,25.884 57.64,26.08 57.094,26.178 Z M54.084,24.904 L56.268,24.904 C56.828,24.904 57.066,24.834 57.318,24.568 C57.584,24.302 57.654,24.064 57.654,23.504 L57.654,23.406 C57.654,22.846 57.584,22.608 57.318,22.342 C57.066,22.076 56.842,22.006 56.296,22.006 L54.084,22.006 L54.084,24.904 Z M7.338,38.666 L10.754,38.666 C10.852,38.666 10.894,38.708 10.894,38.806 L10.894,39.87 C10.894,39.968 10.852,40.01 10.754,40.01 L7.338,40.01 L7.338,43.86 C7.338,43.958 7.296,44 7.198,44 L5.966,44 C5.868,44 5.826,43.958 5.826,43.86 L5.826,37.812 C5.826,36.496 5.98,36.006 6.582,35.418 C7.1,34.886 7.73,34.662 8.64,34.662 L11.692,34.662 C11.79,34.662 11.832,34.704 11.832,34.802 L11.832,35.866 C11.832,35.964 11.79,36.006 11.692,36.006 L8.696,36.006 C8.164,36.006 7.926,36.09 7.674,36.342 C7.408,36.608 7.338,36.832 7.338,37.406 L7.338,38.666 Z M19.686,37.714 L19.686,40.948 C19.686,42.25 19.532,42.74 18.93,43.328 C18.412,43.86 17.796,44.084 16.872,44.084 L15.878,44.084 C14.954,44.084 14.338,43.86 13.82,43.328 C13.218,42.74 13.064,42.25 13.064,40.948 L13.064,37.714 C13.064,36.412 13.218,35.922 13.82,35.334 C14.338,34.802 14.954,34.578 15.878,34.578 L16.872,34.578 C17.796,34.578 18.412,34.802 18.93,35.334 C19.532,35.922 19.686,36.412 19.686,37.714 Z M14.576,37.322 L14.576,41.34 C14.576,41.914 14.646,42.138 14.912,42.404 C15.178,42.67 15.402,42.74 15.976,42.74 L16.774,42.74 C17.348,42.74 17.572,42.67 17.838,42.404 C18.104,42.138 18.174,41.914 18.174,41.34 L18.174,37.322 C18.174,36.748 18.104,36.524 17.838,36.258 C17.586,36.006 17.348,35.922 16.816,35.922 L15.934,35.922 C15.402,35.922 15.164,36.006 14.912,36.258 C14.646,36.524 14.576,36.748 14.576,37.322 Z M25.874,40.178 L28.184,43.874 C28.184,43.874 28.198,43.916 28.198,43.93 C28.198,43.972 28.156,44 28.1,44 L26.644,44 C26.546,44 26.518,43.986 26.462,43.902 L24.18,40.248 L22.864,40.248 L22.864,44 L21.492,44 C21.394,44 21.352,43.958 21.352,43.86 L21.352,34.802 C21.352,34.704 21.394,34.662 21.492,34.662 L25.132,34.662 C26.056,34.662 26.672,34.886 27.19,35.418 C27.722,35.936 27.946,36.552 27.946,37.448 C27.946,38.358 27.722,38.974 27.19,39.492 C26.812,39.884 26.42,40.08 25.874,40.178 Z M22.864,38.904 L25.048,38.904 C25.608,38.904 25.846,38.834 26.098,38.568 C26.364,38.302 26.434,38.064 26.434,37.504 L26.434,37.406 C26.434,36.846 26.364,36.608 26.098,36.342 C25.846,36.076 25.622,36.006 25.076,36.006 L22.864,36.006 L22.864,38.904 Z M29.304,40.948 L29.304,37.714 C29.304,36.426 29.458,35.936 30.06,35.334 C30.592,34.802 31.194,34.578 32.118,34.578 L33.084,34.578 C34.022,34.578 34.638,34.802 35.142,35.32 C35.352,35.53 35.562,35.852 35.562,35.936 C35.562,35.978 35.548,36.02 35.492,36.048 L34.484,36.65 L34.414,36.664 C34.358,36.664 34.358,36.664 34.204,36.426 C33.938,36.048 33.644,35.922 33,35.922 L32.174,35.922 C31.656,35.922 31.404,36.006 31.152,36.258 C30.886,36.524 30.816,36.748 30.816,37.322 L30.816,41.34 C30.816,41.914 30.886,42.138 31.152,42.404 C31.418,42.67 31.642,42.74 32.216,42.74 L33,42.74 C33.742,42.74 33.924,42.656 34.33,42.04 C34.358,42.012 34.386,41.998 34.414,41.998 L34.484,42.012 L35.492,42.614 C35.548,42.656 35.562,42.684 35.562,42.726 C35.562,42.81 35.338,43.132 35.142,43.342 C34.638,43.86 34.022,44.084 33.084,44.084 L32.118,44.084 C31.194,44.084 30.578,43.86 30.06,43.342 C29.458,42.726 29.304,42.236 29.304,40.948 Z M38.152,38.666 L41.638,38.666 C41.736,38.666 41.778,38.708 41.778,38.806 L41.778,39.87 C41.778,39.968 41.736,40.01 41.638,40.01 L38.152,40.01 L38.152,41.256 C38.152,41.83 38.222,42.054 38.488,42.32 C38.754,42.586 38.978,42.656 39.552,42.656 L42.576,42.656 C42.674,42.656 42.716,42.698 42.716,42.796 L42.716,43.86 C42.716,43.958 42.674,44 42.576,44 L39.454,44 C38.544,44 37.914,43.776 37.396,43.244 C36.794,42.656 36.64,42.166 36.64,40.864 L36.64,37.812 C36.64,36.496 36.794,36.006 37.396,35.418 C37.914,34.886 38.544,34.662 39.454,34.662 L42.576,34.662 C42.674,34.662 42.716,34.704 42.716,34.802 L42.716,35.866 C42.716,35.964 42.674,36.006 42.576,36.006 L39.51,36.006 C38.978,36.006 38.74,36.09 38.488,36.342 C38.222,36.608 38.152,36.832 38.152,37.406 L38.152,38.666 Z" id="SNEAKERFORCE" fill="#FFFFFF" fill-rule="nonzero"></path>
            </g>
        </g>
    </g>
</svg>