<?xml version="1.0" encoding="UTF-8"?>
<svg width="70px" height="50px" viewBox="0 0 70 50" version="1.1" xmlns="http://www.w3.org/2000/svg" xmlns:xlink="http://www.w3.org/1999/xlink">
    <!-- Generator: Sketch 54.1 (76490) - https://sketchapp.com -->
    <title>Konzeptdarstellung / Teamsportprofi</title>
    <desc>Created with Sketch.</desc>
    <g id="Atome-&amp;-Moleküle" stroke="none" stroke-width="1" fill="none" fill-rule="evenodd">
        <g id="Konzeptdarstellung" transform="translate(-202.000000, -129.000000)">
            <g id="Konzeptdarstellung-/-Content-Flag-/-Teamsportprofi-Desktop" transform="translate(202.000000, 129.000000)">
                <path d="M0,0 L70,0 L70,46 C70,48.209139 68.209139,50 66,50 L4,50 C1.790861,50 2.705415e-16,48.209139 0,46 L0,0 Z" id="Rectangle" fill="#63B32F" fill-rule="evenodd"></path>
                <path d="M7.492,8.006 L5.21,8.006 C5.112,8.006 5.07,7.964 5.07,7.866 L5.07,6.802 C5.07,6.704 5.112,6.662 5.21,6.662 L11.356,6.662 C11.454,6.662 11.496,6.704 11.496,6.802 L11.496,7.866 C11.496,7.964 11.454,8.006 11.356,8.006 L9.004,8.006 L9.004,15.86 C9.004,15.958 8.962,16 8.864,16 L7.632,16 C7.534,16 7.492,15.958 7.492,15.86 L7.492,8.006 Z M13.806,10.666 L17.292,10.666 C17.39,10.666 17.432,10.708 17.432,10.806 L17.432,11.87 C17.432,11.968 17.39,12.01 17.292,12.01 L13.806,12.01 L13.806,13.256 C13.806,13.83 13.876,14.054 14.142,14.32 C14.408,14.586 14.632,14.656 15.206,14.656 L18.23,14.656 C18.328,14.656 18.37,14.698 18.37,14.796 L18.37,15.86 C18.37,15.958 18.328,16 18.23,16 L15.108,16 C14.198,16 13.568,15.776 13.05,15.244 C12.448,14.656 12.294,14.166 12.294,12.864 L12.294,9.812 C12.294,8.496 12.448,8.006 13.05,7.418 C13.568,6.886 14.198,6.662 15.108,6.662 L18.23,6.662 C18.328,6.662 18.37,6.704 18.37,6.802 L18.37,7.866 C18.37,7.964 18.328,8.006 18.23,8.006 L15.164,8.006 C14.632,8.006 14.394,8.09 14.142,8.342 C13.876,8.608 13.806,8.832 13.806,9.406 L13.806,10.666 Z M24.684,12.878 L21.1,12.878 L21.1,15.86 C21.1,15.958 21.058,16 20.96,16 L19.728,16 C19.63,16 19.588,15.958 19.588,15.86 L19.588,9.714 C19.588,8.412 19.742,7.922 20.344,7.334 C20.862,6.802 21.478,6.578 22.402,6.578 L23.382,6.578 C24.306,6.578 24.922,6.802 25.44,7.334 C26.042,7.922 26.196,8.412 26.196,9.714 L26.196,15.86 C26.196,15.958 26.154,16 26.056,16 L24.824,16 C24.726,16 24.684,15.958 24.684,15.86 L24.684,12.878 Z M21.1,11.534 L24.684,11.534 L24.684,9.322 C24.684,8.748 24.614,8.524 24.348,8.258 C24.096,8.006 23.858,7.922 23.326,7.922 L22.458,7.922 C21.926,7.922 21.688,8.006 21.436,8.258 C21.17,8.524 21.1,8.748 21.1,9.322 L21.1,11.534 Z M34.904,9.182 L32.944,14.348 C32.846,14.628 32.72,14.712 32.412,14.712 L31.964,14.712 C31.656,14.712 31.53,14.628 31.432,14.348 L29.472,9.182 L29.472,15.86 C29.472,15.958 29.43,16 29.332,16 L28.1,16 C28.002,16 27.96,15.958 27.96,15.86 L27.96,7.124 C27.96,6.788 28.086,6.662 28.422,6.662 L29.5,6.662 C29.766,6.662 30.018,6.816 30.088,7.012 L32.188,12.822 L34.288,7.012 C34.372,6.76 34.54,6.662 34.876,6.662 L35.954,6.662 C36.29,6.662 36.416,6.788 36.416,7.124 L36.416,15.86 C36.416,15.958 36.374,16 36.276,16 L35.044,16 C34.946,16 34.904,15.958 34.904,15.86 L34.904,9.182 Z M37.998,11.898 L40.588,11.898 C40.686,11.898 40.728,11.94 40.728,12.038 L40.728,13.004 C40.728,13.102 40.686,13.144 40.588,13.144 L37.998,13.144 C37.9,13.144 37.858,13.102 37.858,13.004 L37.858,12.038 C37.858,11.94 37.9,11.898 37.998,11.898 Z M9.13,30.084 L8.192,30.084 C7.254,30.084 6.624,29.86 6.134,29.342 C5.924,29.118 5.714,28.81 5.714,28.726 C5.714,28.684 5.728,28.656 5.784,28.614 L6.792,28.026 C6.806,28.012 6.848,27.998 6.862,27.998 C6.918,27.998 6.918,27.998 7.072,28.236 C7.324,28.614 7.632,28.74 8.276,28.74 L9.032,28.74 C9.62,28.74 9.83,28.67 10.096,28.404 C10.348,28.152 10.432,27.914 10.432,27.382 C10.432,26.836 10.348,26.598 10.096,26.346 C9.844,26.094 9.592,26.01 9.074,26.01 L8.5,26.01 C7.59,26.01 6.932,25.772 6.442,25.282 C5.952,24.778 5.686,24.12 5.686,23.364 C5.686,22.58 5.952,21.866 6.442,21.348 C6.946,20.802 7.562,20.578 8.5,20.578 L9.438,20.578 C10.39,20.578 11.006,20.802 11.496,21.32 C11.706,21.544 11.916,21.852 11.916,21.936 C11.916,21.978 11.902,22.006 11.832,22.048 L10.838,22.65 C10.782,22.678 10.782,22.678 10.768,22.678 C10.712,22.678 10.712,22.678 10.558,22.44 C10.306,22.048 9.998,21.922 9.34,21.922 L8.584,21.922 C8.01,21.922 7.8,21.992 7.534,22.258 C7.282,22.51 7.198,22.762 7.198,23.294 C7.198,23.826 7.282,24.078 7.534,24.33 C7.786,24.582 8.038,24.666 8.556,24.666 L9.13,24.666 C10.04,24.666 10.698,24.904 11.188,25.394 C11.678,25.898 11.944,26.556 11.944,27.312 C11.944,28.082 11.678,28.796 11.188,29.314 C10.684,29.846 10.068,30.084 9.13,30.084 Z M15.066,26.486 L15.066,30 L13.694,30 C13.596,30 13.554,29.958 13.554,29.86 L13.554,20.802 C13.554,20.704 13.596,20.662 13.694,20.662 L17.334,20.662 C18.258,20.662 18.86,20.886 19.392,21.418 C19.952,21.964 20.148,22.538 20.148,23.574 C20.148,24.61 19.952,25.184 19.392,25.73 C18.874,26.262 18.244,26.486 17.334,26.486 L15.066,26.486 Z M15.066,25.142 L17.236,25.142 C17.81,25.142 18.034,25.072 18.3,24.806 C18.566,24.54 18.636,24.302 18.636,23.742 L18.636,23.406 C18.636,22.846 18.566,22.608 18.3,22.342 C18.048,22.076 17.81,22.006 17.278,22.006 L15.066,22.006 L15.066,25.142 Z M27.988,23.714 L27.988,26.948 C27.988,28.25 27.834,28.74 27.232,29.328 C26.714,29.86 26.098,30.084 25.174,30.084 L24.18,30.084 C23.256,30.084 22.64,29.86 22.122,29.328 C21.52,28.74 21.366,28.25 21.366,26.948 L21.366,23.714 C21.366,22.412 21.52,21.922 22.122,21.334 C22.64,20.802 23.256,20.578 24.18,20.578 L25.174,20.578 C26.098,20.578 26.714,20.802 27.232,21.334 C27.834,21.922 27.988,22.412 27.988,23.714 Z M22.878,23.322 L22.878,27.34 C22.878,27.914 22.948,28.138 23.214,28.404 C23.48,28.67 23.704,28.74 24.278,28.74 L25.076,28.74 C25.65,28.74 25.874,28.67 26.14,28.404 C26.406,28.138 26.476,27.914 26.476,27.34 L26.476,23.322 C26.476,22.748 26.406,22.524 26.14,22.258 C25.888,22.006 25.65,21.922 25.118,21.922 L24.236,21.922 C23.704,21.922 23.466,22.006 23.214,22.258 C22.948,22.524 22.878,22.748 22.878,23.322 Z M34.176,26.178 L36.486,29.874 C36.486,29.874 36.5,29.916 36.5,29.93 C36.5,29.972 36.458,30 36.402,30 L34.946,30 C34.848,30 34.82,29.986 34.764,29.902 L32.482,26.248 L31.166,26.248 L31.166,30 L29.794,30 C29.696,30 29.654,29.958 29.654,29.86 L29.654,20.802 C29.654,20.704 29.696,20.662 29.794,20.662 L33.434,20.662 C34.358,20.662 34.974,20.886 35.492,21.418 C36.024,21.936 36.248,22.552 36.248,23.448 C36.248,24.358 36.024,24.974 35.492,25.492 C35.114,25.884 34.722,26.08 34.176,26.178 Z M31.166,24.904 L33.35,24.904 C33.91,24.904 34.148,24.834 34.4,24.568 C34.666,24.302 34.736,24.064 34.736,23.504 L34.736,23.406 C34.736,22.846 34.666,22.608 34.4,22.342 C34.148,22.076 33.924,22.006 33.378,22.006 L31.166,22.006 L31.166,24.904 Z M39.356,22.006 L37.074,22.006 C36.976,22.006 36.934,21.964 36.934,21.866 L36.934,20.802 C36.934,20.704 36.976,20.662 37.074,20.662 L43.22,20.662 C43.318,20.662 43.36,20.704 43.36,20.802 L43.36,21.866 C43.36,21.964 43.318,22.006 43.22,22.006 L40.868,22.006 L40.868,29.86 C40.868,29.958 40.826,30 40.728,30 L39.496,30 C39.398,30 39.356,29.958 39.356,29.86 L39.356,22.006 Z M44.074,25.898 L46.664,25.898 C46.762,25.898 46.804,25.94 46.804,26.038 L46.804,27.004 C46.804,27.102 46.762,27.144 46.664,27.144 L44.074,27.144 C43.976,27.144 43.934,27.102 43.934,27.004 L43.934,26.038 C43.934,25.94 43.976,25.898 44.074,25.898 Z M7.436,40.486 L7.436,44 L6.064,44 C5.966,44 5.924,43.958 5.924,43.86 L5.924,34.802 C5.924,34.704 5.966,34.662 6.064,34.662 L9.704,34.662 C10.628,34.662 11.23,34.886 11.762,35.418 C12.322,35.964 12.518,36.538 12.518,37.574 C12.518,38.61 12.322,39.184 11.762,39.73 C11.244,40.262 10.614,40.486 9.704,40.486 L7.436,40.486 Z M7.436,39.142 L9.606,39.142 C10.18,39.142 10.404,39.072 10.67,38.806 C10.936,38.54 11.006,38.302 11.006,37.742 L11.006,37.406 C11.006,36.846 10.936,36.608 10.67,36.342 C10.418,36.076 10.18,36.006 9.648,36.006 L7.436,36.006 L7.436,39.142 Z M18.44,40.178 L20.75,43.874 C20.75,43.874 20.764,43.916 20.764,43.93 C20.764,43.972 20.722,44 20.666,44 L19.21,44 C19.112,44 19.084,43.986 19.028,43.902 L16.746,40.248 L15.43,40.248 L15.43,44 L14.058,44 C13.96,44 13.918,43.958 13.918,43.86 L13.918,34.802 C13.918,34.704 13.96,34.662 14.058,34.662 L17.698,34.662 C18.622,34.662 19.238,34.886 19.756,35.418 C20.288,35.936 20.512,36.552 20.512,37.448 C20.512,38.358 20.288,38.974 19.756,39.492 C19.378,39.884 18.986,40.08 18.44,40.178 Z M15.43,38.904 L17.614,38.904 C18.174,38.904 18.412,38.834 18.664,38.568 C18.93,38.302 19,38.064 19,37.504 L19,37.406 C19,36.846 18.93,36.608 18.664,36.342 C18.412,36.076 18.188,36.006 17.642,36.006 L15.43,36.006 L15.43,38.904 Z M28.492,37.714 L28.492,40.948 C28.492,42.25 28.338,42.74 27.736,43.328 C27.218,43.86 26.602,44.084 25.678,44.084 L24.684,44.084 C23.76,44.084 23.144,43.86 22.626,43.328 C22.024,42.74 21.87,42.25 21.87,40.948 L21.87,37.714 C21.87,36.412 22.024,35.922 22.626,35.334 C23.144,34.802 23.76,34.578 24.684,34.578 L25.678,34.578 C26.602,34.578 27.218,34.802 27.736,35.334 C28.338,35.922 28.492,36.412 28.492,37.714 Z M23.382,37.322 L23.382,41.34 C23.382,41.914 23.452,42.138 23.718,42.404 C23.984,42.67 24.208,42.74 24.782,42.74 L25.58,42.74 C26.154,42.74 26.378,42.67 26.644,42.404 C26.91,42.138 26.98,41.914 26.98,41.34 L26.98,37.322 C26.98,36.748 26.91,36.524 26.644,36.258 C26.392,36.006 26.154,35.922 25.622,35.922 L24.74,35.922 C24.208,35.922 23.97,36.006 23.718,36.258 C23.452,36.524 23.382,36.748 23.382,37.322 Z M31.572,38.666 L34.988,38.666 C35.086,38.666 35.128,38.708 35.128,38.806 L35.128,39.87 C35.128,39.968 35.086,40.01 34.988,40.01 L31.572,40.01 L31.572,43.86 C31.572,43.958 31.53,44 31.432,44 L30.2,44 C30.102,44 30.06,43.958 30.06,43.86 L30.06,37.812 C30.06,36.496 30.214,36.006 30.816,35.418 C31.334,34.886 31.964,34.662 32.874,34.662 L35.926,34.662 C36.024,34.662 36.066,34.704 36.066,34.802 L36.066,35.866 C36.066,35.964 36.024,36.006 35.926,36.006 L32.93,36.006 C32.398,36.006 32.16,36.09 31.908,36.342 C31.642,36.608 31.572,36.832 31.572,37.406 L31.572,38.666 Z M37.48,43.86 L37.48,34.802 C37.48,34.704 37.522,34.662 37.62,34.662 L38.852,34.662 C38.95,34.662 38.992,34.704 38.992,34.802 L38.992,43.86 C38.992,43.958 38.95,44 38.852,44 L37.62,44 C37.522,44 37.48,43.958 37.48,43.86 Z" id="TEAM-SPORT-PROFI" fill="#FFFFFF" fill-rule="nonzero"></path>
            </g>
        </g>
    </g>
</svg>