<?xml version="1.0" encoding="UTF-8"?>
<svg width="70px" height="50px" viewBox="0 0 70 50" version="1.1" xmlns="http://www.w3.org/2000/svg" xmlns:xlink="http://www.w3.org/1999/xlink">
    <!-- Generator: Sketch 54.1 (76490) - https://sketchapp.com -->
    <title>Konzeptdarstellung / Freetail</title>
    <desc>Created with Sketch.</desc>
    <g id="Atome-&amp;-Moleküle" stroke="none" stroke-width="1" fill="none" fill-rule="evenodd">
        <g id="Konzeptdarstellung" transform="translate(-30.000000, -129.000000)">
            <g id="Konzeptdarstellung-/-Content-Flag-/-Freetail-Desktop" transform="translate(30.000000, 129.000000)">
                <path d="M0,0 L70,0 L70,46 C70,48.209139 68.209139,50 66,50 L4,50 C1.790861,50 2.705415e-16,48.209139 0,46 L0,0 Z" id="Rectangle" fill="#C41230" fill-rule="evenodd"></path>
                <path d="M7.338,38.666 L10.754,38.666 C10.852,38.666 10.894,38.708 10.894,38.806 L10.894,39.87 C10.894,39.968 10.852,40.01 10.754,40.01 L7.338,40.01 L7.338,43.86 C7.338,43.958 7.296,44 7.198,44 L5.966,44 C5.868,44 5.826,43.958 5.826,43.86 L5.826,37.812 C5.826,36.496 5.98,36.006 6.582,35.418 C7.1,34.886 7.73,34.662 8.64,34.662 L11.692,34.662 C11.79,34.662 11.832,34.704 11.832,34.802 L11.832,35.866 C11.832,35.964 11.79,36.006 11.692,36.006 L8.696,36.006 C8.164,36.006 7.926,36.09 7.674,36.342 C7.408,36.608 7.338,36.832 7.338,37.406 L7.338,38.666 Z M17.768,40.178 L20.078,43.874 C20.078,43.874 20.092,43.916 20.092,43.93 C20.092,43.972 20.05,44 19.994,44 L18.538,44 C18.44,44 18.412,43.986 18.356,43.902 L16.074,40.248 L14.758,40.248 L14.758,44 L13.386,44 C13.288,44 13.246,43.958 13.246,43.86 L13.246,34.802 C13.246,34.704 13.288,34.662 13.386,34.662 L17.026,34.662 C17.95,34.662 18.566,34.886 19.084,35.418 C19.616,35.936 19.84,36.552 19.84,37.448 C19.84,38.358 19.616,38.974 19.084,39.492 C18.706,39.884 18.314,40.08 17.768,40.178 Z M14.758,38.904 L16.942,38.904 C17.502,38.904 17.74,38.834 17.992,38.568 C18.258,38.302 18.328,38.064 18.328,37.504 L18.328,37.406 C18.328,36.846 18.258,36.608 17.992,36.342 C17.74,36.076 17.516,36.006 16.97,36.006 L14.758,36.006 L14.758,38.904 Z M22.71,38.666 L26.196,38.666 C26.294,38.666 26.336,38.708 26.336,38.806 L26.336,39.87 C26.336,39.968 26.294,40.01 26.196,40.01 L22.71,40.01 L22.71,41.256 C22.71,41.83 22.78,42.054 23.046,42.32 C23.312,42.586 23.536,42.656 24.11,42.656 L27.134,42.656 C27.232,42.656 27.274,42.698 27.274,42.796 L27.274,43.86 C27.274,43.958 27.232,44 27.134,44 L24.012,44 C23.102,44 22.472,43.776 21.954,43.244 C21.352,42.656 21.198,42.166 21.198,40.864 L21.198,37.812 C21.198,36.496 21.352,36.006 21.954,35.418 C22.472,34.886 23.102,34.662 24.012,34.662 L27.134,34.662 C27.232,34.662 27.274,34.704 27.274,34.802 L27.274,35.866 C27.274,35.964 27.232,36.006 27.134,36.006 L24.068,36.006 C23.536,36.006 23.298,36.09 23.046,36.342 C22.78,36.608 22.71,36.832 22.71,37.406 L22.71,38.666 Z M29.92,38.666 L33.406,38.666 C33.504,38.666 33.546,38.708 33.546,38.806 L33.546,39.87 C33.546,39.968 33.504,40.01 33.406,40.01 L29.92,40.01 L29.92,41.256 C29.92,41.83 29.99,42.054 30.256,42.32 C30.522,42.586 30.746,42.656 31.32,42.656 L34.344,42.656 C34.442,42.656 34.484,42.698 34.484,42.796 L34.484,43.86 C34.484,43.958 34.442,44 34.344,44 L31.222,44 C30.312,44 29.682,43.776 29.164,43.244 C28.562,42.656 28.408,42.166 28.408,40.864 L28.408,37.812 C28.408,36.496 28.562,36.006 29.164,35.418 C29.682,34.886 30.312,34.662 31.222,34.662 L34.344,34.662 C34.442,34.662 34.484,34.704 34.484,34.802 L34.484,35.866 C34.484,35.964 34.442,36.006 34.344,36.006 L31.278,36.006 C30.746,36.006 30.508,36.09 30.256,36.342 C29.99,36.608 29.92,36.832 29.92,37.406 L29.92,38.666 Z M37.368,36.006 L35.086,36.006 C34.988,36.006 34.946,35.964 34.946,35.866 L34.946,34.802 C34.946,34.704 34.988,34.662 35.086,34.662 L41.232,34.662 C41.33,34.662 41.372,34.704 41.372,34.802 L41.372,35.866 C41.372,35.964 41.33,36.006 41.232,36.006 L38.88,36.006 L38.88,43.86 C38.88,43.958 38.838,44 38.74,44 L37.508,44 C37.41,44 37.368,43.958 37.368,43.86 L37.368,36.006 Z M47.35,40.878 L43.766,40.878 L43.766,43.86 C43.766,43.958 43.724,44 43.626,44 L42.394,44 C42.296,44 42.254,43.958 42.254,43.86 L42.254,37.714 C42.254,36.412 42.408,35.922 43.01,35.334 C43.528,34.802 44.144,34.578 45.068,34.578 L46.048,34.578 C46.972,34.578 47.588,34.802 48.106,35.334 C48.708,35.922 48.862,36.412 48.862,37.714 L48.862,43.86 C48.862,43.958 48.82,44 48.722,44 L47.49,44 C47.392,44 47.35,43.958 47.35,43.86 L47.35,40.878 Z M43.766,39.534 L47.35,39.534 L47.35,37.322 C47.35,36.748 47.28,36.524 47.014,36.258 C46.762,36.006 46.524,35.922 45.992,35.922 L45.124,35.922 C44.592,35.922 44.354,36.006 44.102,36.258 C43.836,36.524 43.766,36.748 43.766,37.322 L43.766,39.534 Z M50.626,43.86 L50.626,34.802 C50.626,34.704 50.668,34.662 50.766,34.662 L51.998,34.662 C52.096,34.662 52.138,34.704 52.138,34.802 L52.138,43.86 C52.138,43.958 52.096,44 51.998,44 L50.766,44 C50.668,44 50.626,43.958 50.626,43.86 Z M55.4,34.802 L55.4,41.256 C55.4,41.83 55.47,42.054 55.736,42.32 C55.988,42.572 56.226,42.656 56.758,42.656 L59.712,42.656 C59.81,42.656 59.852,42.698 59.852,42.796 L59.852,43.86 C59.852,43.958 59.81,44 59.712,44 L56.702,44 C55.792,44 55.162,43.776 54.644,43.244 C54.042,42.656 53.888,42.166 53.888,40.864 L53.888,34.802 C53.888,34.704 53.93,34.662 54.028,34.662 L55.26,34.662 C55.358,34.662 55.4,34.704 55.4,34.802 Z" id="FREETAIL" fill="#FFFFFF" fill-rule="nonzero"></path>
            </g>
        </g>
    </g>
</svg>